<svg width="22" height="23" viewBox="0 0 22 23" fill="none" xmlns="http://www.w3.org/2000/svg">
<path fill-rule="evenodd" clip-rule="evenodd" d="M9.0605 6.51361H7.04255C6.65759 6.51278 6.28804 6.66535 6.01579 6.9376C5.74354 7.20985 5.59097 7.57937 5.5918 7.96436V9.98231C5.59096 10.3673 5.74354 10.7368 6.01579 11.0091C6.28803 11.2813 6.65756 11.4339 7.04255 11.4331H9.05992C9.445 11.4339 9.81443 11.2813 10.0867 11.0091C10.3589 10.7368 10.5115 10.3673 10.5107 9.98231V7.96436C10.5115 7.5794 10.359 7.2101 10.0869 6.93785C9.8148 6.6656 9.4454 6.51291 9.06053 6.51361H9.0605ZM9.6282 9.98241C9.6282 10.1329 9.56836 10.2774 9.46198 10.3839C9.35547 10.4903 9.21103 10.5501 9.06051 10.5501H7.04255C6.89201 10.5501 6.74757 10.4903 6.64108 10.3839C6.5347 10.2774 6.47486 10.1329 6.47486 9.98241V7.96445C6.47486 7.81391 6.5347 7.66947 6.64108 7.56298C6.74759 7.4566 6.89203 7.39676 7.04255 7.39676H9.05992C9.21059 7.39676 9.35491 7.4566 9.4614 7.56298C9.5679 7.66949 9.62773 7.81393 9.62773 7.96445L9.6282 9.98241Z" fill="#4F4BF5" fill-opacity="0.87" stroke="#4F4BF5" stroke-width="0.5"/>
<path fill-rule="evenodd" clip-rule="evenodd" d="M9.0605 12.5684H7.04255C6.65759 12.5676 6.28804 12.7201 6.01579 12.9924C5.74354 13.2646 5.59097 13.6342 5.5918 14.0191V16.0365C5.59096 16.4216 5.74354 16.791 6.01579 17.0634C6.28803 17.3356 6.65756 17.4881 7.04255 17.4873H9.05992C9.445 17.4881 9.81443 17.3356 10.0867 17.0634C10.3589 16.791 10.5115 16.4216 10.5107 16.0365V14.0191C10.5115 13.6343 10.359 13.2649 10.0869 12.9926C9.8148 12.7204 9.4454 12.5677 9.06053 12.5684H9.0605ZM9.6282 16.0372C9.6282 16.1877 9.56836 16.3322 9.46198 16.4387C9.35547 16.545 9.21103 16.6049 9.06051 16.6049H7.04255C6.89201 16.6049 6.74757 16.545 6.64108 16.4387C6.5347 16.3322 6.47486 16.1877 6.47486 16.0372V14.0192C6.47486 13.8687 6.5347 13.7243 6.64108 13.6178C6.74759 13.5114 6.89203 13.4515 7.04255 13.4515H9.05992C9.21059 13.4515 9.35491 13.5114 9.4614 13.6178C9.5679 13.7243 9.62773 13.8687 9.62773 14.0192L9.6282 16.0372Z" fill="#4F4BF5" fill-opacity="0.87" stroke="#4F4BF5" stroke-width="0.5"/>
<path fill-rule="evenodd" clip-rule="evenodd" d="M13.0967 11.4331H15.1147C15.4997 11.4339 15.8692 11.2813 16.1415 11.0091C16.4137 10.7368 16.5663 10.3673 16.5654 9.98231V7.96436C16.5663 7.5794 16.4137 7.20985 16.1415 6.9376C15.8692 6.66536 15.4997 6.51279 15.1147 6.51361H13.0967C12.7118 6.51278 12.3422 6.66535 12.07 6.9376C11.7977 7.20984 11.6452 7.57937 11.646 7.96436V9.98231C11.6452 10.3673 11.7977 10.7368 12.07 11.0091C12.3422 11.2813 12.7118 11.4339 13.0967 11.4331ZM12.5291 7.96427C12.5291 7.81373 12.5889 7.66929 12.6953 7.5628C12.8018 7.45641 12.9462 7.39658 13.0967 7.39658H15.1147C15.2652 7.39658 15.4097 7.45641 15.5162 7.5628C15.6226 7.6693 15.6824 7.81374 15.6824 7.96427V9.98222C15.6824 10.1328 15.6226 10.2772 15.5162 10.3837C15.4097 10.4901 15.2652 10.5499 15.1147 10.5499H13.0967C12.9462 10.5499 12.8018 10.4901 12.6953 10.3837C12.5889 10.2772 12.5291 10.1327 12.5291 9.98222V7.96427Z" fill="#4F4BF5" fill-opacity="0.87" stroke="#4F4BF5" stroke-width="0.5"/>
<path fill-rule="evenodd" clip-rule="evenodd" d="M4.01412 10.4234C4.13128 10.4234 4.24365 10.3769 4.32645 10.2941C4.40925 10.2111 4.45581 10.0988 4.45581 9.98161V6.95534C4.45557 6.53699 4.62155 6.13573 4.91723 5.83992C5.21305 5.5441 5.61418 5.37788 6.03253 5.37813H9.05941C9.21342 5.37274 9.35355 5.28742 9.42905 5.15303C9.50468 5.01865 9.50468 4.85458 9.42905 4.72019C9.35354 4.58581 9.21341 4.50048 9.05941 4.4951H6.03253C5.37997 4.49498 4.75413 4.75406 4.29268 5.21551C3.83122 5.67696 3.57214 6.3028 3.57227 6.95536V9.98224C3.57239 10.0993 3.61905 10.2115 3.70187 10.2942C3.78468 10.377 3.89693 10.4235 4.01407 10.4235L4.01412 10.4234Z" fill="#4F4BF5" fill-opacity="0.87" stroke="#4F4BF5" stroke-width="0.5"/>
<path fill-rule="evenodd" clip-rule="evenodd" d="M9.05939 18.6235H6.03251C5.61403 18.6239 5.21278 18.4578 4.91684 18.162C4.62103 17.8661 4.45493 17.4648 4.4553 17.0463V14.0194C4.44991 13.8654 4.36459 13.7253 4.2302 13.6498C4.09582 13.5742 3.93175 13.5742 3.79736 13.6498C3.66298 13.7253 3.57765 13.8654 3.57227 14.0194V17.0463C3.57215 17.6989 3.83123 18.3247 4.29268 18.7862C4.75413 19.2476 5.37997 19.5067 6.03253 19.5066H9.05941C9.21342 19.5012 9.35355 19.4159 9.42905 19.2815C9.50468 19.1471 9.50468 18.983 9.42905 18.8487C9.35354 18.7143 9.21341 18.6289 9.05941 18.6236L9.05939 18.6235Z" fill="#4F4BF5" fill-opacity="0.87" stroke="#4F4BF5" stroke-width="0.5"/>
<path fill-rule="evenodd" clip-rule="evenodd" d="M18.1426 13.5777C18.0254 13.5777 17.913 13.6242 17.8302 13.707C17.7474 13.79 17.7009 13.9023 17.7009 14.0195V17.0464C17.7011 17.4647 17.535 17.8661 17.2392 18.1619C16.9434 18.4577 16.542 18.6238 16.1237 18.6236H13.0973C12.9775 18.6194 12.8612 18.664 12.775 18.7473C12.6888 18.8305 12.6401 18.9452 12.6401 19.065C12.6401 19.1849 12.6888 19.2996 12.775 19.3829C12.8612 19.466 12.9775 19.5107 13.0973 19.5065H16.1242C16.7768 19.5067 17.4027 19.2474 17.8641 18.7859C18.3256 18.3244 18.5847 17.6984 18.5844 17.0457V14.0188C18.5843 13.9018 18.5376 13.7896 18.4548 13.7069C18.372 13.624 18.2598 13.5776 18.1426 13.5776L18.1426 13.5777Z" fill="#4F4BF5" fill-opacity="0.87" stroke="#4F4BF5" stroke-width="0.5"/>
<path fill-rule="evenodd" clip-rule="evenodd" d="M16.1222 4.49519H13.0953C12.9413 4.50057 12.8012 4.58589 12.7257 4.72028C12.65 4.85467 12.65 5.01873 12.7257 5.15312C12.8012 5.28751 12.9413 5.37283 13.0953 5.37822H16.1222C16.5407 5.37786 16.9419 5.54396 17.2379 5.83976C17.5337 6.1357 17.6998 6.53695 17.6994 6.95543V9.98231C17.6953 10.1021 17.74 10.2184 17.8231 10.3046C17.9064 10.3908 18.0211 10.4395 18.141 10.4395C18.2608 10.4395 18.3754 10.3908 18.4587 10.3046C18.542 10.2184 18.5866 10.1021 18.5824 9.98231V6.95543C18.5825 6.30287 18.3235 5.67703 17.862 5.21558C17.4006 4.75412 16.7747 4.49504 16.1222 4.49517L16.1222 4.49519Z" fill="#4F4BF5" fill-opacity="0.87" stroke="#4F4BF5" stroke-width="0.5"/>
<path fill-rule="evenodd" clip-rule="evenodd" d="M13.097 13.6742H16.1239C16.2437 13.6784 16.36 13.6337 16.4462 13.5504C16.5325 13.4673 16.581 13.3525 16.581 13.2327C16.581 13.1128 16.5325 12.9982 16.4462 12.9149C16.36 12.8317 16.2437 12.7871 16.1239 12.7913H13.097C12.7125 12.7903 12.3436 12.9425 12.0714 13.2141C11.7992 13.4856 11.6463 13.8543 11.6463 14.2388V17.0443V17.0441C11.6421 17.1639 11.6868 17.2802 11.77 17.3664C11.8533 17.4527 11.9679 17.5013 12.0878 17.5013C12.2076 17.5013 12.3223 17.4527 12.4056 17.3664C12.4888 17.2803 12.5335 17.1639 12.5293 17.0441V14.2414C12.5293 14.0909 12.5891 13.9467 12.6956 13.8403C12.8021 13.734 12.9466 13.6744 13.097 13.6748L13.097 13.6742Z" fill="#4F4BF5" fill-opacity="0.87" stroke="#4F4BF5" stroke-width="0.5"/>
<path fill-rule="evenodd" clip-rule="evenodd" d="M13.6634 15.0287V17.0467C13.6592 17.1664 13.7038 17.2826 13.787 17.3689C13.8703 17.4551 13.9849 17.5038 14.1048 17.5038C14.2246 17.5038 14.3394 17.4551 14.4225 17.3689C14.5058 17.2827 14.5505 17.1665 14.5463 17.0467V15.0287C14.5409 14.8747 14.4556 14.7346 14.3212 14.6589C14.1868 14.5834 14.0227 14.5834 13.8883 14.6589C13.7539 14.7346 13.6686 14.8747 13.6633 15.0287H13.6634Z" fill="#4F4BF5" fill-opacity="0.87" stroke="#4F4BF5" stroke-width="0.5"/>
<path fill-rule="evenodd" clip-rule="evenodd" d="M15.197 15.0291V17.047C15.1929 17.1668 15.2376 17.283 15.3208 17.3693C15.4041 17.4555 15.5187 17.5042 15.6386 17.5042C15.7584 17.5042 15.873 17.4555 15.9563 17.3693C16.0396 17.283 16.0843 17.1668 16.0801 17.047V15.0291C16.0843 14.9093 16.0396 14.793 15.9563 14.7068C15.873 14.6206 15.7584 14.5719 15.6386 14.5719C15.5187 14.5719 15.4041 14.6206 15.3208 14.7068C15.2376 14.7929 15.1929 14.9093 15.197 15.0291Z" fill="#4F4BF5" fill-opacity="0.87" stroke="#4F4BF5" stroke-width="0.5"/>
</svg>
