<svg width="19" height="19" viewBox="0 0 19 19" fill="none" xmlns="http://www.w3.org/2000/svg">
<path d="M9.50045 1.1664C4.90532 1.1664 1.16699 4.90473 1.16699 9.49986C1.16713 14.0947 4.90532 17.833 9.50045 17.833C11.0505 17.833 12.5635 17.4044 13.876 16.5931C14.1567 16.4194 14.2437 16.0512 14.0701 15.7704C13.8968 15.4897 13.5285 15.4033 13.2474 15.5763C12.124 16.2706 10.8284 16.6377 9.50023 16.6377C5.56452 16.6377 2.36234 13.4354 2.36234 9.4995C2.36234 5.56355 5.56452 2.36161 9.50023 2.36161C13.4359 2.36161 16.6385 5.56379 16.6385 9.4995C16.6385 10.4467 16.4526 11.3641 16.0935 12.2302C16.0226 12.3555 15.5873 13.0673 14.8559 13.0673C14.3787 13.0673 14.2706 12.741 14.2635 12.4747V5.33403C14.2635 5.00401 13.9959 4.73642 13.6659 4.73642C13.3358 4.73642 13.0683 5.00401 13.0683 5.33403V6.35452C12.1948 5.36487 10.9211 4.73642 9.50034 4.73642C6.87377 4.73642 4.73719 6.87301 4.73719 9.49957C4.73719 12.1261 6.87377 14.2627 9.50034 14.2627C10.9278 14.2627 12.2072 13.6286 13.0809 12.6306C13.1435 13.3385 13.6343 14.2627 14.8559 14.2627C16.1799 14.2627 16.9162 13.1891 17.1179 12.8462C17.1313 12.8235 17.1513 12.807 17.162 12.7822C17.608 11.7431 17.8338 10.6386 17.8338 9.49943C17.8338 4.90464 14.0955 1.16631 9.50034 1.16631L9.50045 1.1664ZM9.50045 13.0674C7.53314 13.0674 5.93253 11.467 5.93253 9.49952C5.93253 7.53221 7.53301 5.9316 9.50045 5.9316C11.4678 5.9316 13.0684 7.53207 13.0684 9.49952C13.0684 11.4668 11.4679 13.0674 9.50045 13.0674Z" fill="#4F4BF5" fill-opacity="0.87" stroke="#4F4BF5" stroke-width="0.5"/>
</svg>
