<svg width="56" height="54" viewBox="0 0 56 54" fill="none" xmlns="http://www.w3.org/2000/svg">
<path d="M2.81396 18.9402V17.0911L27.5952 1.84109L52.3765 17.0911V18.9402H2.81396Z" fill="url(#paint0_linear_16_3915)"/>
<path d="M2.81396 18.9402V17.0911L27.5952 1.84109L52.3765 17.0911V18.9402H2.81396Z" fill="url(#paint1_linear_16_3915)"/>
<path d="M2.81396 18.9402V17.0911L27.5952 1.84109L52.3765 17.0911V18.9402H2.81396Z" fill="url(#paint2_linear_16_3915)"/>
<path d="M2.81396 18.9402V17.0911L27.5952 1.84109L52.3765 17.0911V18.9402H2.81396Z" fill="url(#paint3_radial_16_3915)"/>
<path d="M2.81396 18.9402V17.0911L27.5952 1.84109L52.3765 17.0911V18.9402H2.81396Z" fill="url(#paint4_linear_16_3915)"/>
<g filter="url(#filter0_d_16_3915)">
<path d="M4.396 15.4327L24.9644 2.58453C26.5657 1.57422 28.6244 1.57422 30.2257 2.58453L50.7941 15.4327V19.0355L28.8722 5.42484C28.0907 4.94828 27.1185 4.94828 26.3369 5.42484L4.41506 19.0355V15.4327H4.396Z" fill="url(#paint5_linear_16_3915)"/>
<path d="M4.396 15.4327L24.9644 2.58453C26.5657 1.57422 28.6244 1.57422 30.2257 2.58453L50.7941 15.4327V19.0355L28.8722 5.42484C28.0907 4.94828 27.1185 4.94828 26.3369 5.42484L4.41506 19.0355V15.4327H4.396Z" fill="url(#paint6_linear_16_3915)"/>
<path d="M4.396 15.4327L24.9644 2.58453C26.5657 1.57422 28.6244 1.57422 30.2257 2.58453L50.7941 15.4327V19.0355L28.8722 5.42484C28.0907 4.94828 27.1185 4.94828 26.3369 5.42484L4.41506 19.0355V15.4327H4.396Z" fill="url(#paint7_radial_16_3915)"/>
<path d="M4.396 15.4327L24.9644 2.58453C26.5657 1.57422 28.6244 1.57422 30.2257 2.58453L50.7941 15.4327V19.0355L28.8722 5.42484C28.0907 4.94828 27.1185 4.94828 26.3369 5.42484L4.41506 19.0355V15.4327H4.396Z" fill="url(#paint8_radial_16_3915)"/>
</g>
<g filter="url(#filter1_f_16_3915)">
<path d="M6.35205 15.7262L18.7236 8.20416" stroke="url(#paint9_linear_16_3915)" stroke-width="0.5" stroke-linecap="round"/>
</g>
<g filter="url(#filter2_f_16_3915)">
<path d="M28.9199 2.89525L47.4792 14.3899" stroke="url(#paint10_linear_16_3915)" stroke-width="0.5" stroke-linecap="round"/>
</g>
<path d="M46.6577 17.1292H8.53271V49.5355H46.6577V17.1292Z" fill="#96919E"/>
<path d="M46.6577 17.1292H8.53271V49.5355H46.6577V17.1292Z" fill="url(#paint11_linear_16_3915)"/>
<path d="M46.6577 17.1292H8.53271V49.5355H46.6577V17.1292Z" fill="url(#paint12_linear_16_3915)"/>
<path d="M46.6577 17.1292H8.53271V49.5355H46.6577V17.1292Z" fill="url(#paint13_linear_16_3915)"/>
<path d="M50.4702 24.1137H44.7515V49.4916H50.4702V24.1137Z" fill="url(#paint14_linear_16_3915)"/>
<path d="M50.4702 24.1137H44.7515V49.4916H50.4702V24.1137Z" fill="url(#paint15_linear_16_3915)"/>
<path d="M50.4702 24.1137H44.7515V49.4916H50.4702V24.1137Z" fill="url(#paint16_linear_16_3915)"/>
<path d="M50.4702 24.1137H44.7515V49.4916H50.4702V24.1137Z" fill="url(#paint17_radial_16_3915)"/>
<path d="M42.8452 24.1576H37.1265V49.5355H42.8452V24.1576Z" fill="url(#paint18_linear_16_3915)"/>
<path d="M42.8452 24.1576H37.1265V49.5355H42.8452V24.1576Z" fill="url(#paint19_linear_16_3915)"/>
<path d="M42.8452 24.1576H37.1265V49.5355H42.8452V24.1576Z" fill="url(#paint20_linear_16_3915)"/>
<path d="M42.8452 24.1576H37.1265V49.5355H42.8452V24.1576Z" fill="url(#paint21_radial_16_3915)"/>
<path d="M18.064 24.1576H12.3452V49.1028H18.064V24.1576Z" fill="url(#paint22_linear_16_3915)"/>
<path d="M18.064 24.1576H12.3452V49.1028H18.064V24.1576Z" fill="url(#paint23_linear_16_3915)"/>
<path d="M18.064 24.1576H12.3452V49.1028H18.064V24.1576Z" fill="url(#paint24_linear_16_3915)"/>
<path d="M18.064 24.1576H12.3452V49.1028H18.064V24.1576Z" fill="url(#paint25_linear_16_3915)"/>
<path d="M18.064 24.1576H12.3452V49.1028H18.064V24.1576Z" fill="url(#paint26_radial_16_3915)"/>
<path d="M10.439 24.1576H4.72021V49.1028H10.439V24.1576Z" fill="url(#paint27_linear_16_3915)"/>
<path d="M10.439 24.1576H4.72021V49.1028H10.439V24.1576Z" fill="url(#paint28_linear_16_3915)"/>
<path d="M10.439 24.1576H4.72021V49.1028H10.439V24.1576Z" fill="url(#paint29_linear_16_3915)"/>
<path d="M10.439 24.1576H4.72021V49.1028H10.439V24.1576Z" fill="url(#paint30_radial_16_3915)"/>
<path d="M52.3745 24.1137V19.024H2.81201V24.1137H52.3745Z" fill="url(#paint31_linear_16_3915)"/>
<path d="M52.3745 24.1137V19.024H2.81201V24.1137H52.3745Z" fill="url(#paint32_linear_16_3915)"/>
<path d="M52.3745 24.1137V19.024H2.81201V24.1137H52.3745Z" fill="url(#paint33_linear_16_3915)"/>
<path d="M52.3745 24.1137V19.024H2.81201V24.1137H52.3745Z" fill="url(#paint34_radial_16_3915)"/>
<path d="M52.3745 24.1137V19.024H2.81201V24.1137H52.3745Z" fill="url(#paint35_linear_16_3915)"/>
<path d="M52.3745 24.1137V19.024H2.81201V24.1137H52.3745Z" fill="url(#paint36_linear_16_3915)"/>
<path d="M0.907715 17.1292C0.907715 16.0808 1.76553 15.223 2.81396 15.223H52.3765C53.4249 15.223 54.2827 16.0808 54.2827 17.1292C54.2827 18.1777 53.4249 19.0355 52.3765 19.0355H2.81396C1.76553 19.0355 0.907715 18.1777 0.907715 17.1292Z" fill="url(#paint37_linear_16_3915)"/>
<path d="M0.907715 17.1292C0.907715 16.0808 1.76553 15.223 2.81396 15.223H52.3765C53.4249 15.223 54.2827 16.0808 54.2827 17.1292C54.2827 18.1777 53.4249 19.0355 52.3765 19.0355H2.81396C1.76553 19.0355 0.907715 18.1777 0.907715 17.1292Z" fill="url(#paint38_linear_16_3915)"/>
<path d="M0.907715 17.1292C0.907715 16.0808 1.76553 15.223 2.81396 15.223H52.3765C53.4249 15.223 54.2827 16.0808 54.2827 17.1292C54.2827 18.1777 53.4249 19.0355 52.3765 19.0355H2.81396C1.76553 19.0355 0.907715 18.1777 0.907715 17.1292Z" fill="url(#paint39_linear_16_3915)"/>
<path d="M0.907715 17.1292C0.907715 16.0808 1.76553 15.223 2.81396 15.223H52.3765C53.4249 15.223 54.2827 16.0808 54.2827 17.1292C54.2827 18.1777 53.4249 19.0355 52.3765 19.0355H2.81396C1.76553 19.0355 0.907715 18.1777 0.907715 17.1292Z" fill="url(#paint40_linear_16_3915)"/>
<path d="M0.907715 17.1292C0.907715 16.0808 1.76553 15.223 2.81396 15.223H52.3765C53.4249 15.223 54.2827 16.0808 54.2827 17.1292C54.2827 18.1777 53.4249 19.0355 52.3765 19.0355H2.81396C1.76553 19.0355 0.907715 18.1777 0.907715 17.1292Z" fill="url(#paint41_radial_16_3915)"/>
<path d="M0.907715 17.1292C0.907715 16.0808 1.76553 15.223 2.81396 15.223H52.3765C53.4249 15.223 54.2827 16.0808 54.2827 17.1292C54.2827 18.1777 53.4249 19.0355 52.3765 19.0355H2.81396C1.76553 19.0355 0.907715 18.1777 0.907715 17.1292Z" fill="url(#paint42_radial_16_3915)"/>
<path d="M0.907715 17.1292C0.907715 16.0808 1.76553 15.223 2.81396 15.223H52.3765C53.4249 15.223 54.2827 16.0808 54.2827 17.1292C54.2827 18.1777 53.4249 19.0355 52.3765 19.0355H2.81396C1.76553 19.0355 0.907715 18.1777 0.907715 17.1292Z" fill="url(#paint43_radial_16_3915)"/>
<g filter="url(#filter3_d_16_3915)">
<path d="M0.907715 24.7542C0.907715 23.7058 1.76553 22.848 2.81396 22.848H52.3765C53.4249 22.848 54.2827 23.7058 54.2827 24.7542C54.2827 25.8026 53.4249 26.6605 52.3765 26.6605H2.81396C1.76553 26.6605 0.907715 25.8026 0.907715 24.7542Z" fill="url(#paint44_linear_16_3915)"/>
<path d="M0.907715 24.7542C0.907715 23.7058 1.76553 22.848 2.81396 22.848H52.3765C53.4249 22.848 54.2827 23.7058 54.2827 24.7542C54.2827 25.8026 53.4249 26.6605 52.3765 26.6605H2.81396C1.76553 26.6605 0.907715 25.8026 0.907715 24.7542Z" fill="url(#paint45_linear_16_3915)"/>
<path d="M0.907715 24.7542C0.907715 23.7058 1.76553 22.848 2.81396 22.848H52.3765C53.4249 22.848 54.2827 23.7058 54.2827 24.7542C54.2827 25.8026 53.4249 26.6605 52.3765 26.6605H2.81396C1.76553 26.6605 0.907715 25.8026 0.907715 24.7542Z" fill="url(#paint46_linear_16_3915)"/>
</g>
<path d="M0.907715 24.7542C0.907715 23.7058 1.76553 22.848 2.81396 22.848H52.3765C53.4249 22.848 54.2827 23.7058 54.2827 24.7542C54.2827 25.8026 53.4249 26.6605 52.3765 26.6605H2.81396C1.76553 26.6605 0.907715 25.8026 0.907715 24.7542Z" fill="url(#paint47_radial_16_3915)"/>
<path d="M0.907715 24.7542C0.907715 23.7058 1.76553 22.848 2.81396 22.848H52.3765C53.4249 22.848 54.2827 23.7058 54.2827 24.7542C54.2827 25.8026 53.4249 26.6605 52.3765 26.6605H2.81396C1.76553 26.6605 0.907715 25.8026 0.907715 24.7542Z" fill="url(#paint48_radial_16_3915)"/>
<path d="M54.2827 53.348H0.907715V51.5751C0.907715 50.4505 1.82271 49.5355 2.9474 49.5355H52.224C53.3487 49.5355 54.2637 50.4505 54.2637 51.5751V53.348H54.2827Z" fill="url(#paint49_linear_16_3915)"/>
<path d="M54.2827 53.348H0.907715V51.5751C0.907715 50.4505 1.82271 49.5355 2.9474 49.5355H52.224C53.3487 49.5355 54.2637 50.4505 54.2637 51.5751V53.348H54.2827Z" fill="url(#paint50_linear_16_3915)"/>
<path d="M54.2827 53.348H0.907715V51.5751C0.907715 50.4505 1.82271 49.5355 2.9474 49.5355H52.224C53.3487 49.5355 54.2637 50.4505 54.2637 51.5751V53.348H54.2827Z" fill="url(#paint51_linear_16_3915)"/>
<path d="M54.2827 53.348H0.907715V51.5751C0.907715 50.4505 1.82271 49.5355 2.9474 49.5355H52.224C53.3487 49.5355 54.2637 50.4505 54.2637 51.5751V53.348H54.2827Z" fill="url(#paint52_linear_16_3915)"/>
<g filter="url(#filter4_d_16_3915)">
<path d="M33.314 45.723H21.8765V33.5802C21.8765 32.913 22.4102 32.3792 23.0774 32.3792H32.094C32.7612 32.3792 33.314 32.932 33.314 33.5992V45.723Z" fill="#4B4258"/>
<path d="M33.314 45.723H21.8765V33.5802C21.8765 32.913 22.4102 32.3792 23.0774 32.3792H32.094C32.7612 32.3792 33.314 32.932 33.314 33.5992V45.723Z" fill="url(#paint53_linear_16_3915)"/>
</g>
<g filter="url(#filter5_dd_16_3915)">
<path d="M27.5571 22.848C30.09 22.848 32.5192 21.8418 34.3102 20.0507C36.1013 18.2597 37.1075 15.8306 37.1075 13.2977C37.1075 10.7648 36.1013 8.3356 34.3102 6.54457C32.5192 4.75354 30.09 3.74734 27.5571 3.74734C25.0242 3.74734 22.5951 4.75354 20.8041 6.54457C19.013 8.3356 18.0068 10.7648 18.0068 13.2977C18.0068 15.8306 19.013 18.2597 20.8041 20.0507C22.5951 21.8418 25.0242 22.848 27.5571 22.848Z" fill="#B2ABB9"/>
<path d="M27.5571 22.848C30.09 22.848 32.5192 21.8418 34.3102 20.0507C36.1013 18.2597 37.1075 15.8306 37.1075 13.2977C37.1075 10.7648 36.1013 8.3356 34.3102 6.54457C32.5192 4.75354 30.09 3.74734 27.5571 3.74734C25.0242 3.74734 22.5951 4.75354 20.8041 6.54457C19.013 8.3356 18.0068 10.7648 18.0068 13.2977C18.0068 15.8306 19.013 18.2597 20.8041 20.0507C22.5951 21.8418 25.0242 22.848 27.5571 22.848Z" fill="url(#paint54_radial_16_3915)"/>
</g>
<g filter="url(#filter6_f_16_3915)">
<path d="M30.0353 15.0724C30.0353 15.5489 29.8847 15.9683 29.5987 16.3286C29.3319 16.6717 28.9716 16.9386 28.5331 17.1102C28.4251 17.1646 28.3094 17.2026 28.19 17.2226V18.3263C28.19 18.7838 27.7516 19.1632 27.275 19.1632C26.7984 19.1632 26.3467 18.7819 26.3467 18.3244V17.2989C26.0642 17.2608 25.7883 17.1838 25.527 17.0701C24.9951 16.8795 24.5586 16.5364 24.2155 16.0808C24.1055 15.9253 24.0518 15.7371 24.063 15.547C24.063 15.2439 24.1964 14.9961 24.4824 14.7864C24.8827 14.5386 25.3192 14.5958 25.6795 14.958C25.8892 15.1868 26.1179 15.3583 26.3467 15.4727C26.3657 15.4918 26.4039 15.4918 26.4229 15.5108C26.6898 15.6252 27.012 15.7014 27.3741 15.7014C28.1919 15.6633 28.1919 15.2821 28.1919 15.1296C28.1919 14.958 28.1157 14.8246 27.9441 14.7293C27.7344 14.6149 27.3722 14.4814 26.9166 14.3671C26.7243 14.3166 26.5335 14.26 26.3448 14.1974C26.0779 14.1021 25.832 14.0258 25.6414 13.9305C25.2792 13.778 24.9761 13.5493 24.7283 13.2271C24.4614 12.9031 24.328 12.4837 24.328 11.9518C24.328 11.4753 24.4614 11.0769 24.7473 10.7166C24.9951 10.3735 25.3383 10.1257 25.7767 9.93503C25.9654 9.85878 26.156 9.78253 26.3467 9.74441V8.60447C26.3467 8.14697 26.7622 7.74666 27.2369 7.74666C27.7135 7.74666 28.19 8.14697 28.19 8.60447V9.82257C28.3044 9.84163 28.3997 9.87975 28.5141 9.91788C28.9906 10.1085 29.391 10.3735 29.6578 10.7357C29.8103 10.9072 29.8675 11.1169 29.8675 11.3247C29.8675 11.5916 29.7722 11.8203 29.5434 11.9919C29.3732 12.1276 29.1592 12.1967 28.9417 12.1861C28.7242 12.1756 28.518 12.0862 28.3616 11.9347C28.3093 11.8786 28.2518 11.8276 28.19 11.7822C28.0839 11.672 27.9542 11.5873 27.8107 11.5344C27.5729 11.4217 27.311 11.3693 27.0482 11.3819C26.6307 11.3819 26.442 11.4772 26.3467 11.5916C26.2704 11.6869 26.2704 11.8013 26.2704 11.8775C26.2704 11.9728 26.2895 12.0681 26.3467 12.1444C26.3467 12.1634 26.3657 12.1825 26.3848 12.2016C26.4992 12.295 26.6135 12.3712 26.7851 12.4284C26.9548 12.4856 27.2216 12.5618 27.5629 12.6572C27.7916 12.7334 28.0013 12.7906 28.1919 12.8478C28.4207 12.924 28.6113 13.0003 28.7829 13.0765C29.1241 13.2481 29.4272 13.4749 29.6559 13.7971C29.9037 14.1212 30.0372 14.5405 30.0372 15.0743L30.0353 15.0724Z" fill="#6A6177"/>
</g>
<g filter="url(#filter7_d_16_3915)">
<path d="M30.3401 14.918C30.3401 15.3945 30.1876 15.8139 29.9017 16.1761C29.6232 16.5285 29.2543 16.7987 28.8342 16.9577C28.7198 17.0148 28.6054 17.053 28.491 17.072V18.1777C28.491 18.6352 28.0488 19.0164 27.5722 19.0164C27.0957 19.0164 26.642 18.6352 26.642 18.1777V17.1483C26.3595 17.1102 26.0837 17.0332 25.8223 16.9195C25.2885 16.7289 24.8501 16.3858 24.507 15.9283C24.397 15.7728 24.3433 15.5846 24.3545 15.3945C24.3545 15.0895 24.4879 14.8417 24.7739 14.632C25.1742 14.3842 25.6126 14.4414 25.9748 14.8036C26.1845 15.0323 26.4132 15.2039 26.642 15.3183C26.661 15.3373 26.6992 15.3373 26.7182 15.3564C26.9851 15.4708 27.3092 15.547 27.6714 15.547C28.491 15.5089 28.491 15.1277 28.491 14.9752C28.491 14.8036 28.4148 14.6702 28.2432 14.5748C28.0335 14.4605 27.6714 14.327 27.2139 14.2127C27.0217 14.1607 26.831 14.1035 26.642 14.0411C26.3751 13.9458 26.1273 13.8695 25.9367 13.7742C25.5745 13.6217 25.2695 13.393 25.0217 13.0689C24.7548 12.7448 24.6214 12.3255 24.6214 11.7917C24.6214 11.3152 24.7548 10.9148 25.0407 10.5527C25.2885 10.2095 25.6317 9.96172 26.0701 9.77109C26.2607 9.69484 26.4514 9.61859 26.642 9.58047V8.43672C26.642 7.97922 27.0595 7.5789 27.536 7.5789C28.0126 7.5789 28.491 7.97922 28.491 8.43672V9.65672C28.6054 9.67578 28.7007 9.7139 28.8151 9.75203C29.2917 9.94265 29.692 10.2095 29.9589 10.5717C30.1114 10.7433 30.1685 10.953 30.1685 11.1627C30.1685 11.4295 30.0732 11.6583 29.8445 11.8298C29.5014 12.1158 28.9676 12.0777 28.6626 11.7727C28.6103 11.7166 28.5529 11.6655 28.491 11.6202C28.3844 11.5098 28.254 11.425 28.1098 11.3723C27.872 11.2598 27.6101 11.2074 27.3473 11.2198C26.9279 11.2198 26.7373 11.3152 26.642 11.4295C26.5657 11.5248 26.5657 11.6392 26.5657 11.7155C26.5657 11.8108 26.5848 11.9061 26.642 11.9823C26.642 12.0014 26.661 12.0205 26.6801 12.0395C26.7945 12.1348 26.9089 12.2111 27.0804 12.2683C27.252 12.3255 27.5189 12.4017 27.862 12.497C28.0907 12.5733 28.3004 12.6305 28.491 12.6877C28.7198 12.7639 28.9104 12.8402 29.082 12.9164C29.4251 13.088 29.7301 13.3167 29.9589 13.6408C30.2067 13.9648 30.3401 14.3842 30.3401 14.918Z" fill="#734B9B"/>
</g>
<g filter="url(#filter8_f_16_3915)">
<path d="M29.353 11.0769C28.8669 10.6384 27.9824 9.97315 26.7033 10.3449C25.3289 10.7452 25.3766 12.518 26.5527 12.9221C28.459 13.5779 29.353 13.473 29.5322 14.6339C29.7095 15.7967 28.5924 16.2581 27.4925 16.1685C26.526 16.0903 25.6206 15.4479 25.3613 15.1105" stroke="#8E66B8" stroke-width="0.15" stroke-linecap="round"/>
</g>
<g filter="url(#filter9_f_16_3915)">
<path d="M27.9058 8.248V10.3906" stroke="#8E66B8" stroke-width="0.15" stroke-linecap="round"/>
</g>
<g filter="url(#filter10_f_16_3915)">
<path d="M27.8447 16.2847V18.13" stroke="#8E66B8" stroke-width="0.15" stroke-linecap="round"/>
</g>
<g filter="url(#filter11_f_16_3915)">
<path d="M7.9209 26.6605H9.5069V46.6932H7.9209V26.6605Z" fill="url(#paint55_linear_16_3915)"/>
</g>
<g filter="url(#filter12_f_16_3915)">
<path d="M39.9858 26.6605H41.5718V46.6932H39.9858V26.6605Z" fill="url(#paint56_linear_16_3915)"/>
</g>
<g filter="url(#filter13_f_16_3915)">
<path d="M15.3647 26.6605H16.9507V46.6932H15.3647V26.6605Z" fill="url(#paint57_linear_16_3915)"/>
</g>
<path d="M52.3765 49.5355H2.75684V47.7626C2.75684 46.638 3.67184 45.723 4.79652 45.723H50.3368C51.4615 45.723 52.3765 46.638 52.3765 47.7626V49.5355Z" fill="url(#paint58_linear_16_3915)"/>
<path d="M52.3765 49.5355H2.75684V47.7626C2.75684 46.638 3.67184 45.723 4.79652 45.723H50.3368C51.4615 45.723 52.3765 46.638 52.3765 47.7626V49.5355Z" fill="url(#paint59_linear_16_3915)"/>
<path d="M52.3765 49.5355H2.75684V47.7626C2.75684 46.638 3.67184 45.723 4.79652 45.723H50.3368C51.4615 45.723 52.3765 46.638 52.3765 47.7626V49.5355Z" fill="url(#paint60_linear_16_3915)"/>
<path d="M52.3765 49.5355H2.75684V47.7626C2.75684 46.638 3.67184 45.723 4.79652 45.723H50.3368C51.4615 45.723 52.3765 46.638 52.3765 47.7626V49.5355Z" fill="url(#paint61_linear_16_3915)"/>
<path d="M52.3765 49.5355H2.75684V47.7626C2.75684 46.638 3.67184 45.723 4.79652 45.723H50.3368C51.4615 45.723 52.3765 46.638 52.3765 47.7626V49.5355Z" fill="url(#paint62_linear_16_3915)"/>
<defs>
<filter id="filter0_d_16_3915" x="3.796" y="0.926797" width="47.5979" height="18.4087" filterUnits="userSpaceOnUse" color-interpolation-filters="sRGB">
<feFlood flood-opacity="0" result="BackgroundImageFix"/>
<feColorMatrix in="SourceAlpha" type="matrix" values="0 0 0 0 0 0 0 0 0 0 0 0 0 0 0 0 0 0 127 0" result="hardAlpha"/>
<feOffset dy="-0.3"/>
<feGaussianBlur stdDeviation="0.3"/>
<feComposite in2="hardAlpha" operator="out"/>
<feColorMatrix type="matrix" values="0 0 0 0 0.364706 0 0 0 0 0.352941 0 0 0 0 0.384314 0 0 0 1 0"/>
<feBlend mode="normal" in2="BackgroundImageFix" result="effect1_dropShadow_16_3915"/>
<feBlend mode="normal" in="SourceGraphic" in2="effect1_dropShadow_16_3915" result="shape"/>
</filter>
<filter id="filter1_f_16_3915" x="5.60205" y="7.45413" width="13.8716" height="9.02213" filterUnits="userSpaceOnUse" color-interpolation-filters="sRGB">
<feFlood flood-opacity="0" result="BackgroundImageFix"/>
<feBlend mode="normal" in="SourceGraphic" in2="BackgroundImageFix" result="shape"/>
<feGaussianBlur stdDeviation="0.25" result="effect1_foregroundBlur_16_3915"/>
</filter>
<filter id="filter2_f_16_3915" x="28.1699" y="2.14522" width="20.0591" height="12.9948" filterUnits="userSpaceOnUse" color-interpolation-filters="sRGB">
<feFlood flood-opacity="0" result="BackgroundImageFix"/>
<feBlend mode="normal" in="SourceGraphic" in2="BackgroundImageFix" result="shape"/>
<feGaussianBlur stdDeviation="0.25" result="effect1_foregroundBlur_16_3915"/>
</filter>
<filter id="filter3_d_16_3915" x="0.807715" y="22.448" width="54.375" height="4.8125" filterUnits="userSpaceOnUse" color-interpolation-filters="sRGB">
<feFlood flood-opacity="0" result="BackgroundImageFix"/>
<feColorMatrix in="SourceAlpha" type="matrix" values="0 0 0 0 0 0 0 0 0 0 0 0 0 0 0 0 0 0 127 0" result="hardAlpha"/>
<feOffset dx="0.4" dy="0.1"/>
<feGaussianBlur stdDeviation="0.25"/>
<feComposite in2="hardAlpha" operator="out"/>
<feColorMatrix type="matrix" values="0 0 0 0 0.505882 0 0 0 0 0.486275 0 0 0 0 0.521569 0 0 0 1 0"/>
<feBlend mode="normal" in2="BackgroundImageFix" result="effect1_dropShadow_16_3915"/>
<feBlend mode="normal" in="SourceGraphic" in2="effect1_dropShadow_16_3915" result="shape"/>
</filter>
<filter id="filter4_d_16_3915" x="20.9265" y="32.1292" width="12.6375" height="14.5438" filterUnits="userSpaceOnUse" color-interpolation-filters="sRGB">
<feFlood flood-opacity="0" result="BackgroundImageFix"/>
<feColorMatrix in="SourceAlpha" type="matrix" values="0 0 0 0 0 0 0 0 0 0 0 0 0 0 0 0 0 0 127 0" result="hardAlpha"/>
<feOffset dx="-0.35" dy="0.35"/>
<feGaussianBlur stdDeviation="0.3"/>
<feComposite in2="hardAlpha" operator="out"/>
<feColorMatrix type="matrix" values="0 0 0 0 0.117647 0 0 0 0 0.0784314 0 0 0 0 0.160784 0 0 0 1 0"/>
<feBlend mode="normal" in2="BackgroundImageFix" result="effect1_dropShadow_16_3915"/>
<feBlend mode="normal" in="SourceGraphic" in2="effect1_dropShadow_16_3915" result="shape"/>
</filter>
<filter id="filter5_dd_16_3915" x="16.7068" y="2.44734" width="21.7006" height="21.7006" filterUnits="userSpaceOnUse" color-interpolation-filters="sRGB">
<feFlood flood-opacity="0" result="BackgroundImageFix"/>
<feColorMatrix in="SourceAlpha" type="matrix" values="0 0 0 0 0 0 0 0 0 0 0 0 0 0 0 0 0 0 127 0" result="hardAlpha"/>
<feOffset dx="-0.3" dy="0.3"/>
<feGaussianBlur stdDeviation="0.5"/>
<feComposite in2="hardAlpha" operator="out"/>
<feColorMatrix type="matrix" values="0 0 0 0 0.917647 0 0 0 0 0.878431 0 0 0 0 0.937255 0 0 0 1 0"/>
<feBlend mode="normal" in2="BackgroundImageFix" result="effect1_dropShadow_16_3915"/>
<feColorMatrix in="SourceAlpha" type="matrix" values="0 0 0 0 0 0 0 0 0 0 0 0 0 0 0 0 0 0 127 0" result="hardAlpha"/>
<feOffset dx="0.3" dy="-0.3"/>
<feGaussianBlur stdDeviation="0.5"/>
<feComposite in2="hardAlpha" operator="out"/>
<feColorMatrix type="matrix" values="0 0 0 0 0.454902 0 0 0 0 0.423529 0 0 0 0 0.501961 0 0 0 1 0"/>
<feBlend mode="normal" in2="effect1_dropShadow_16_3915" result="effect2_dropShadow_16_3915"/>
<feBlend mode="normal" in="SourceGraphic" in2="effect2_dropShadow_16_3915" result="shape"/>
</filter>
<filter id="filter6_f_16_3915" x="23.7615" y="7.44666" width="6.57559" height="12.0165" filterUnits="userSpaceOnUse" color-interpolation-filters="sRGB">
<feFlood flood-opacity="0" result="BackgroundImageFix"/>
<feBlend mode="normal" in="SourceGraphic" in2="BackgroundImageFix" result="shape"/>
<feGaussianBlur stdDeviation="0.15" result="effect1_foregroundBlur_16_3915"/>
</filter>
<filter id="filter7_d_16_3915" x="24.353" y="7.0789" width="6.4873" height="11.9375" filterUnits="userSpaceOnUse" color-interpolation-filters="sRGB">
<feFlood flood-opacity="0" result="BackgroundImageFix"/>
<feColorMatrix in="SourceAlpha" type="matrix" values="0 0 0 0 0 0 0 0 0 0 0 0 0 0 0 0 0 0 127 0" result="hardAlpha"/>
<feOffset dx="0.25" dy="-0.25"/>
<feGaussianBlur stdDeviation="0.125"/>
<feComposite in2="hardAlpha" operator="out"/>
<feColorMatrix type="matrix" values="0 0 0 0 0.333333 0 0 0 0 0.207843 0 0 0 0 0.47451 0 0 0 1 0"/>
<feBlend mode="normal" in2="BackgroundImageFix" result="effect1_dropShadow_16_3915"/>
<feBlend mode="normal" in="SourceGraphic" in2="effect1_dropShadow_16_3915" result="shape"/>
</filter>
<filter id="filter8_f_16_3915" x="24.9861" y="9.86101" width="4.93984" height="6.69329" filterUnits="userSpaceOnUse" color-interpolation-filters="sRGB">
<feFlood flood-opacity="0" result="BackgroundImageFix"/>
<feBlend mode="normal" in="SourceGraphic" in2="BackgroundImageFix" result="shape"/>
<feGaussianBlur stdDeviation="0.15" result="effect1_foregroundBlur_16_3915"/>
</filter>
<filter id="filter9_f_16_3915" x="27.5306" y="7.873" width="0.750391" height="2.89262" filterUnits="userSpaceOnUse" color-interpolation-filters="sRGB">
<feFlood flood-opacity="0" result="BackgroundImageFix"/>
<feBlend mode="normal" in="SourceGraphic" in2="BackgroundImageFix" result="shape"/>
<feGaussianBlur stdDeviation="0.15" result="effect1_foregroundBlur_16_3915"/>
</filter>
<filter id="filter10_f_16_3915" x="27.4695" y="15.9097" width="0.750391" height="2.59525" filterUnits="userSpaceOnUse" color-interpolation-filters="sRGB">
<feFlood flood-opacity="0" result="BackgroundImageFix"/>
<feBlend mode="normal" in="SourceGraphic" in2="BackgroundImageFix" result="shape"/>
<feGaussianBlur stdDeviation="0.15" result="effect1_foregroundBlur_16_3915"/>
</filter>
<filter id="filter11_f_16_3915" x="7.1709" y="25.9105" width="3.08594" height="21.5328" filterUnits="userSpaceOnUse" color-interpolation-filters="sRGB">
<feFlood flood-opacity="0" result="BackgroundImageFix"/>
<feBlend mode="normal" in="SourceGraphic" in2="BackgroundImageFix" result="shape"/>
<feGaussianBlur stdDeviation="0.375" result="effect1_foregroundBlur_16_3915"/>
</filter>
<filter id="filter12_f_16_3915" x="39.2358" y="25.9105" width="3.08594" height="21.5328" filterUnits="userSpaceOnUse" color-interpolation-filters="sRGB">
<feFlood flood-opacity="0" result="BackgroundImageFix"/>
<feBlend mode="normal" in="SourceGraphic" in2="BackgroundImageFix" result="shape"/>
<feGaussianBlur stdDeviation="0.375" result="effect1_foregroundBlur_16_3915"/>
</filter>
<filter id="filter13_f_16_3915" x="14.6147" y="25.9105" width="3.08594" height="21.5328" filterUnits="userSpaceOnUse" color-interpolation-filters="sRGB">
<feFlood flood-opacity="0" result="BackgroundImageFix"/>
<feBlend mode="normal" in="SourceGraphic" in2="BackgroundImageFix" result="shape"/>
<feGaussianBlur stdDeviation="0.375" result="effect1_foregroundBlur_16_3915"/>
</filter>
<linearGradient id="paint0_linear_16_3915" x1="39.6294" y1="13.7418" x2="15.2046" y2="13.7418" gradientUnits="userSpaceOnUse">
<stop stop-color="#9E98A4"/>
<stop offset="1" stop-color="#847E89"/>
</linearGradient>
<linearGradient id="paint1_linear_16_3915" x1="38.9622" y1="10.932" x2="38.0739" y2="12.356" gradientUnits="userSpaceOnUse">
<stop offset="0.161" stop-color="#56525D"/>
<stop offset="1" stop-color="#56525D" stop-opacity="0"/>
</linearGradient>
<linearGradient id="paint2_linear_16_3915" x1="16.6343" y1="10.6632" x2="17.2748" y2="11.7364" gradientUnits="userSpaceOnUse">
<stop offset="0.458" stop-color="#56525D"/>
<stop offset="1" stop-color="#56525D" stop-opacity="0"/>
</linearGradient>
<radialGradient id="paint3_radial_16_3915" cx="0" cy="0" r="1" gradientUnits="userSpaceOnUse" gradientTransform="translate(20.4315 13.7342) rotate(175.914) scale(4.68181 9.85094)">
<stop offset="0.349" stop-color="#605D64"/>
<stop offset="1" stop-color="#605D64" stop-opacity="0"/>
</radialGradient>
<linearGradient id="paint4_linear_16_3915" x1="32.7878" y1="16.5669" x2="32.7878" y2="14.8646" gradientUnits="userSpaceOnUse">
<stop stop-color="#6D6870"/>
<stop offset="1" stop-color="#6D6870" stop-opacity="0"/>
</linearGradient>
<linearGradient id="paint5_linear_16_3915" x1="9.43612" y1="10.4307" x2="51.2993" y2="10.4307" gradientUnits="userSpaceOnUse">
<stop stop-color="#A7A0AB"/>
<stop offset="1" stop-color="#A9A2B2"/>
</linearGradient>
<linearGradient id="paint6_linear_16_3915" x1="40.4146" y1="8.69978" x2="39.1546" y2="10.7242" gradientUnits="userSpaceOnUse">
<stop stop-color="#DBD2E0"/>
<stop offset="1" stop-color="#DBD2E0" stop-opacity="0"/>
</linearGradient>
<radialGradient id="paint7_radial_16_3915" cx="0" cy="0" r="1" gradientUnits="userSpaceOnUse" gradientTransform="translate(27.5951 4.77481) rotate(90) scale(2.2339 3.32219)">
<stop stop-color="#7D797E"/>
<stop offset="1" stop-color="#9E97A1" stop-opacity="0"/>
</radialGradient>
<radialGradient id="paint8_radial_16_3915" cx="0" cy="0" r="1" gradientUnits="userSpaceOnUse" gradientTransform="translate(21.7845 11.9435) rotate(-138.844) scale(5.42137 6.34234)">
<stop offset="0.451" stop-color="#605C64"/>
<stop offset="1" stop-color="#605C64" stop-opacity="0"/>
</radialGradient>
<linearGradient id="paint9_linear_16_3915" x1="6.35205" y1="15.7262" x2="19.1258" y2="7.47216" gradientUnits="userSpaceOnUse">
<stop stop-color="#B2AAB8"/>
<stop offset="1" stop-color="#B2AAB8" stop-opacity="0"/>
</linearGradient>
<linearGradient id="paint10_linear_16_3915" x1="28.9199" y1="2.89525" x2="47.9767" y2="15.0762" gradientUnits="userSpaceOnUse">
<stop stop-color="#DDD3E1" stop-opacity="0"/>
<stop offset="0.18" stop-color="#DDD3E1"/>
<stop offset="0.822" stop-color="#DDD3E1"/>
<stop offset="1" stop-color="#DDD3E1" stop-opacity="0"/>
</linearGradient>
<linearGradient id="paint11_linear_16_3915" x1="42.1304" y1="41.7389" x2="34.1489" y2="41.7389" gradientUnits="userSpaceOnUse">
<stop offset="0.417" stop-color="#56525D"/>
<stop offset="1" stop-color="#55505C" stop-opacity="0"/>
</linearGradient>
<linearGradient id="paint12_linear_16_3915" x1="10.6182" y1="41.7389" x2="19.2153" y2="41.7389" gradientUnits="userSpaceOnUse">
<stop stop-color="#4B4750"/>
<stop offset="1" stop-color="#4B4750" stop-opacity="0"/>
</linearGradient>
<linearGradient id="paint13_linear_16_3915" x1="34.1489" y1="25.7741" x2="34.1489" y2="30.6598" gradientUnits="userSpaceOnUse">
<stop stop-color="#645A6D"/>
<stop offset="1" stop-color="#645A6D" stop-opacity="0"/>
</linearGradient>
<linearGradient id="paint14_linear_16_3915" x1="44.7515" y1="36.7979" x2="49.7554" y2="36.7979" gradientUnits="userSpaceOnUse">
<stop stop-color="#726C75"/>
<stop offset="1" stop-color="#BFB7C6"/>
</linearGradient>
<linearGradient id="paint15_linear_16_3915" x1="44.1014" y1="35.6904" x2="46.6329" y2="35.6904" gradientUnits="userSpaceOnUse">
<stop stop-color="#76727B"/>
<stop offset="1" stop-color="#76727B" stop-opacity="0"/>
</linearGradient>
<linearGradient id="paint16_linear_16_3915" x1="51.1393" y1="35.0442" x2="47.6108" y2="35.0442" gradientUnits="userSpaceOnUse">
<stop stop-color="#E4DBEA"/>
<stop offset="1" stop-color="#E4DBEA" stop-opacity="0"/>
</linearGradient>
<radialGradient id="paint17_radial_16_3915" cx="0" cy="0" r="1" gradientUnits="userSpaceOnUse" gradientTransform="translate(48.3447 43.1572) rotate(-90) scale(18.0261 12.2612)">
<stop offset="0.823" stop-color="#655E71" stop-opacity="0"/>
<stop offset="0.951" stop-color="#655E71"/>
</radialGradient>
<linearGradient id="paint18_linear_16_3915" x1="37.1265" y1="36.8417" x2="42.1304" y2="36.8417" gradientUnits="userSpaceOnUse">
<stop stop-color="#8C8693"/>
<stop offset="1" stop-color="#9E99A5"/>
</linearGradient>
<linearGradient id="paint19_linear_16_3915" x1="36.4764" y1="35.7361" x2="39.0079" y2="35.7361" gradientUnits="userSpaceOnUse">
<stop stop-color="#76727B"/>
<stop offset="1" stop-color="#76727B" stop-opacity="0"/>
</linearGradient>
<linearGradient id="paint20_linear_16_3915" x1="43.5143" y1="35.0899" x2="41.5375" y2="35.0899" gradientUnits="userSpaceOnUse">
<stop stop-color="#A09AA5"/>
<stop offset="1" stop-color="#A09AA5" stop-opacity="0"/>
</linearGradient>
<radialGradient id="paint21_radial_16_3915" cx="0" cy="0" r="1" gradientUnits="userSpaceOnUse" gradientTransform="translate(40.7197 43.201) rotate(-90) scale(18.0261 7.22372)">
<stop offset="0.782" stop-color="#655E71" stop-opacity="0"/>
<stop offset="1" stop-color="#655E71"/>
</radialGradient>
<linearGradient id="paint22_linear_16_3915" x1="10.1168" y1="36.6263" x2="15.8356" y2="36.6263" gradientUnits="userSpaceOnUse">
<stop stop-color="#9B9B9B"/>
<stop offset="1" stop-color="#D3D3D3"/>
</linearGradient>
<linearGradient id="paint23_linear_16_3915" x1="12.3452" y1="36.6263" x2="17.3491" y2="36.6263" gradientUnits="userSpaceOnUse">
<stop stop-color="#79747E"/>
<stop offset="1" stop-color="#A09BA7"/>
</linearGradient>
<linearGradient id="paint24_linear_16_3915" x1="11.6933" y1="35.5379" x2="14.2267" y2="35.5379" gradientUnits="userSpaceOnUse">
<stop stop-color="#76727B"/>
<stop offset="1" stop-color="#76727B" stop-opacity="0"/>
</linearGradient>
<linearGradient id="paint25_linear_16_3915" x1="18.7331" y1="34.9031" x2="16.0147" y2="34.9031" gradientUnits="userSpaceOnUse">
<stop stop-color="#B8B1BF"/>
<stop offset="1" stop-color="#B8B1BF" stop-opacity="0"/>
</linearGradient>
<radialGradient id="paint26_radial_16_3915" cx="0" cy="0" r="1" gradientUnits="userSpaceOnUse" gradientTransform="translate(15.9385 42.8769) rotate(-90) scale(17.7186 7.22372)">
<stop offset="0.782" stop-color="#655E71" stop-opacity="0"/>
<stop offset="1" stop-color="#655E71"/>
</radialGradient>
<linearGradient id="paint27_linear_16_3915" x1="4.72021" y1="36.6263" x2="9.72412" y2="36.6263" gradientUnits="userSpaceOnUse">
<stop stop-color="#8C8693"/>
<stop offset="1" stop-color="#9E99A5"/>
</linearGradient>
<linearGradient id="paint28_linear_16_3915" x1="4.06828" y1="35.5379" x2="6.60168" y2="35.5379" gradientUnits="userSpaceOnUse">
<stop stop-color="#76727B"/>
<stop offset="1" stop-color="#76727B" stop-opacity="0"/>
</linearGradient>
<linearGradient id="paint29_linear_16_3915" x1="11.1081" y1="34.9031" x2="9.13128" y2="34.9031" gradientUnits="userSpaceOnUse">
<stop stop-color="#A09AA5"/>
<stop offset="1" stop-color="#A09AA5" stop-opacity="0"/>
</linearGradient>
<radialGradient id="paint30_radial_16_3915" cx="0" cy="0" r="1" gradientUnits="userSpaceOnUse" gradientTransform="translate(8.3135 42.8769) rotate(-90) scale(17.7186 7.22372)">
<stop offset="0.782" stop-color="#655E71" stop-opacity="0"/>
<stop offset="1" stop-color="#655E71"/>
</radialGradient>
<linearGradient id="paint31_linear_16_3915" x1="9.02448" y1="20.7721" x2="52.3745" y2="20.7721" gradientUnits="userSpaceOnUse">
<stop stop-color="#A59FAC"/>
<stop offset="1" stop-color="#AFA8B6"/>
</linearGradient>
<linearGradient id="paint32_linear_16_3915" x1="27.5933" y1="19.024" x2="27.5933" y2="19.8113" gradientUnits="userSpaceOnUse">
<stop stop-color="#676071"/>
<stop offset="1" stop-color="#676071" stop-opacity="0"/>
</linearGradient>
<linearGradient id="paint33_linear_16_3915" x1="2.40026" y1="21.0942" x2="5.21961" y2="21.0942" gradientUnits="userSpaceOnUse">
<stop stop-color="#7E7881"/>
<stop offset="1" stop-color="#7E7881" stop-opacity="0"/>
</linearGradient>
<radialGradient id="paint34_radial_16_3915" cx="0" cy="0" r="1" gradientUnits="userSpaceOnUse" gradientTransform="translate(23.188 19.0244) rotate(128.212) scale(5.10404 10.2866)">
<stop offset="0.389" stop-color="#645D6E"/>
<stop offset="1" stop-color="#645D6E" stop-opacity="0"/>
</radialGradient>
<linearGradient id="paint35_linear_16_3915" x1="32.7192" y1="24.1137" x2="32.7192" y2="22.3848" gradientUnits="userSpaceOnUse">
<stop stop-color="#5D5A61"/>
<stop offset="1" stop-color="#5D5A61" stop-opacity="0"/>
</linearGradient>
<linearGradient id="paint36_linear_16_3915" x1="52.3745" y1="21.5689" x2="50.8114" y2="21.5689" gradientUnits="userSpaceOnUse">
<stop stop-color="#DBD2E1"/>
<stop offset="1" stop-color="#DBD2E1" stop-opacity="0"/>
</linearGradient>
<linearGradient id="paint37_linear_16_3915" x1="27.5914" y1="15.2192" x2="27.5914" y2="19.0355" gradientUnits="userSpaceOnUse">
<stop stop-color="#C9C0CE"/>
<stop offset="1" stop-color="#A09AAC"/>
</linearGradient>
<linearGradient id="paint38_linear_16_3915" x1="6.50828" y1="19.0355" x2="27.5952" y2="19.0355" gradientUnits="userSpaceOnUse">
<stop stop-color="#B0A8B4"/>
<stop offset="1" stop-color="#B0A8B4" stop-opacity="0"/>
</linearGradient>
<linearGradient id="paint39_linear_16_3915" x1="25.3916" y1="19.5197" x2="25.3916" y2="17.1292" gradientUnits="userSpaceOnUse">
<stop stop-color="#7C7586"/>
<stop offset="1" stop-color="#7C7586" stop-opacity="0"/>
</linearGradient>
<linearGradient id="paint40_linear_16_3915" x1="0.907715" y1="17.1292" x2="3.26003" y2="17.1292" gradientUnits="userSpaceOnUse">
<stop stop-color="#7C7586"/>
<stop offset="1" stop-color="#7C7586" stop-opacity="0"/>
</linearGradient>
<radialGradient id="paint41_radial_16_3915" cx="0" cy="0" r="1" gradientUnits="userSpaceOnUse" gradientTransform="translate(19.6137 15.7377) rotate(153.223) scale(3.08771 8.25603)">
<stop offset="0.211" stop-color="#685F73"/>
<stop offset="1" stop-color="#685F73" stop-opacity="0"/>
</radialGradient>
<radialGradient id="paint42_radial_16_3915" cx="0" cy="0" r="1" gradientUnits="userSpaceOnUse" gradientTransform="translate(43.3942 13.1223) rotate(94.2362) scale(5.05978 26.7253)">
<stop stop-color="#CBC3D2"/>
<stop offset="1" stop-color="#CBC3D2" stop-opacity="0"/>
</radialGradient>
<radialGradient id="paint43_radial_16_3915" cx="0" cy="0" r="1" gradientUnits="userSpaceOnUse" gradientTransform="translate(54.0006 15.8082) rotate(-38.2902) scale(2.26205 2.03913)">
<stop stop-color="#F6EBFC"/>
<stop offset="1" stop-color="#F6EBFC" stop-opacity="0"/>
</radialGradient>
<linearGradient id="paint44_linear_16_3915" x1="27.5914" y1="22.8441" x2="27.5914" y2="26.6605" gradientUnits="userSpaceOnUse">
<stop stop-color="#C8C0CE"/>
<stop offset="1" stop-color="#948B9F"/>
</linearGradient>
<linearGradient id="paint45_linear_16_3915" x1="0.301527" y1="26.6605" x2="2.91881" y2="26.6605" gradientUnits="userSpaceOnUse">
<stop stop-color="#79747E"/>
<stop offset="1" stop-color="#79747E" stop-opacity="0"/>
</linearGradient>
<linearGradient id="paint46_linear_16_3915" x1="25.3573" y1="27.8004" x2="25.3573" y2="25.2975" gradientUnits="userSpaceOnUse">
<stop stop-color="#787182"/>
<stop offset="1" stop-color="#787182" stop-opacity="0"/>
</linearGradient>
<radialGradient id="paint47_radial_16_3915" cx="0" cy="0" r="1" gradientUnits="userSpaceOnUse" gradientTransform="translate(26.3752 20.5033) rotate(90) scale(4.05078 7.51449)">
<stop offset="0.571" stop-color="#4E4B52"/>
<stop offset="1" stop-color="#6E6A72" stop-opacity="0"/>
</radialGradient>
<radialGradient id="paint48_radial_16_3915" cx="0" cy="0" r="1" gradientUnits="userSpaceOnUse" gradientTransform="translate(54.0006 23.4332) rotate(-38.2902) scale(2.26205 2.03913)">
<stop stop-color="#F6EBFC"/>
<stop offset="1" stop-color="#F6EBFC" stop-opacity="0"/>
</radialGradient>
<linearGradient id="paint49_linear_16_3915" x1="25.3763" y1="49.5355" x2="25.3763" y2="53.348" gradientUnits="userSpaceOnUse">
<stop stop-color="#C0B9C6"/>
<stop offset="1" stop-color="#BFB8C7"/>
</linearGradient>
<linearGradient id="paint50_linear_16_3915" x1="27.5952" y1="48.7291" x2="27.5952" y2="51.9564" gradientUnits="userSpaceOnUse">
<stop offset="0.708" stop-color="#CBC3D2"/>
<stop offset="1" stop-color="#CBC3D2" stop-opacity="0"/>
</linearGradient>
<linearGradient id="paint51_linear_16_3915" x1="0.67134" y1="53.348" x2="3.35725" y2="53.348" gradientUnits="userSpaceOnUse">
<stop stop-color="#79737C"/>
<stop offset="1" stop-color="#79737C" stop-opacity="0"/>
</linearGradient>
<linearGradient id="paint52_linear_16_3915" x1="55.3693" y1="51.4417" x2="51.6502" y2="51.4417" gradientUnits="userSpaceOnUse">
<stop stop-color="#FFF6FF"/>
<stop offset="1" stop-color="#FFF6FF" stop-opacity="0"/>
</linearGradient>
<linearGradient id="paint53_linear_16_3915" x1="21.8765" y1="42.4061" x2="24.0343" y2="42.4061" gradientUnits="userSpaceOnUse">
<stop stop-color="#4F4461"/>
<stop offset="1" stop-color="#4F4461" stop-opacity="0"/>
</linearGradient>
<radialGradient id="paint54_radial_16_3915" cx="0" cy="0" r="1" gradientUnits="userSpaceOnUse" gradientTransform="translate(25.9692 14.937) rotate(-35.1806) scale(13.6265 13.6265)">
<stop offset="0.693" stop-color="#EBE1F1" stop-opacity="0"/>
<stop offset="1" stop-color="#EBE1F1"/>
</radialGradient>
<linearGradient id="paint55_linear_16_3915" x1="8.7139" y1="43.8625" x2="8.7139" y2="18.6771" gradientUnits="userSpaceOnUse">
<stop stop-color="#D2C9D7"/>
<stop offset="1" stop-color="#D2C9D7" stop-opacity="0"/>
</linearGradient>
<linearGradient id="paint56_linear_16_3915" x1="40.7788" y1="43.8625" x2="40.7788" y2="18.6771" gradientUnits="userSpaceOnUse">
<stop stop-color="#D2C9D7"/>
<stop offset="1" stop-color="#D2C9D7" stop-opacity="0"/>
</linearGradient>
<linearGradient id="paint57_linear_16_3915" x1="16.1577" y1="43.8625" x2="16.1577" y2="18.6771" gradientUnits="userSpaceOnUse">
<stop offset="0.331" stop-color="#CEC5D4"/>
<stop offset="1" stop-color="#CEC5D4" stop-opacity="0"/>
</linearGradient>
<linearGradient id="paint58_linear_16_3915" x1="25.5041" y1="45.723" x2="25.5041" y2="49.5355" gradientUnits="userSpaceOnUse">
<stop stop-color="#C0B9C6"/>
<stop offset="1" stop-color="#BFB8C7"/>
</linearGradient>
<linearGradient id="paint59_linear_16_3915" x1="27.5667" y1="44.9166" x2="27.5667" y2="48.1439" gradientUnits="userSpaceOnUse">
<stop offset="0.708" stop-color="#CBC3D2"/>
<stop offset="1" stop-color="#CBC3D2" stop-opacity="0"/>
</linearGradient>
<linearGradient id="paint60_linear_16_3915" x1="2.53762" y1="49.5355" x2="5.0348" y2="49.5355" gradientUnits="userSpaceOnUse">
<stop stop-color="#79737C"/>
<stop offset="1" stop-color="#79737C" stop-opacity="0"/>
</linearGradient>
<linearGradient id="paint61_linear_16_3915" x1="53.3868" y1="47.6292" x2="49.9289" y2="47.6292" gradientUnits="userSpaceOnUse">
<stop stop-color="#FFF6FF"/>
<stop offset="1" stop-color="#FFF6FF" stop-opacity="0"/>
</linearGradient>
<linearGradient id="paint62_linear_16_3915" x1="27.5667" y1="50.3761" x2="27.5667" y2="49.3048" gradientUnits="userSpaceOnUse">
<stop stop-color="#817B84"/>
<stop offset="1" stop-color="#817B84" stop-opacity="0"/>
</linearGradient>
</defs>
</svg>
