<svg width="374" height="226" viewBox="0 0 374 226" fill="none" xmlns="http://www.w3.org/2000/svg">
<g filter="url(#filter0_f_215_136)">
<rect x="10" y="11.8704" width="361" height="211" fill="white"/>
<rect x="10.5" y="12.3704" width="360" height="210" stroke="#BCBBFF"/>
</g>
<rect y="0.870361" width="354" height="207" fill="url(#paint0_linear_215_136)"/>
<mask id="mask0_215_136" style="mask-type:alpha" maskUnits="userSpaceOnUse" x="0" y="0" width="354" height="208">
<rect y="0.870361" width="354" height="207" fill="url(#paint1_linear_215_136)"/>
</mask>
<g mask="url(#mask0_215_136)">
<path d="M56.4616 9.51457C56.4616 31.1218 37.1657 51.3971 9.83838 51.3971C-17.489 51.3971 -36.7848 31.1218 -36.7848 9.51457C-36.7848 -12.0927 -17.489 -32.368 9.83838 -32.368C37.1657 -32.368 56.4616 -12.0927 56.4616 9.51457Z" stroke="#3B86FF" stroke-width="47.0769"/>
<path d="M57.1581 7.6183C57.1581 30.8915 36.9141 49.8134 11.8713 49.8134C-13.1714 49.8134 -33.4155 30.8915 -33.4155 7.6183C-33.4155 -15.6549 -13.1714 -34.5768 11.8713 -34.5768C36.9141 -34.5768 57.1581 -15.6549 57.1581 7.6183Z" stroke="url(#paint2_linear_215_136)" stroke-width="0.941537"/>
<path d="M245.462 109.515C245.462 143.739 215.197 174.242 174.338 174.242C133.48 174.242 103.215 143.739 103.215 109.515C103.215 75.2906 133.48 44.7874 174.338 44.7874C215.197 44.7874 245.462 75.2906 245.462 109.515Z" stroke="#3B86FF" stroke-width="47.0769"/>
<path d="M238.346 106.956C238.346 138.458 210.948 164.05 177.081 164.05C143.214 164.05 115.816 138.458 115.816 106.956C115.816 75.4546 143.214 49.8624 177.081 49.8624C210.948 49.8624 238.346 75.4546 238.346 106.956Z" stroke="url(#paint3_linear_215_136)" stroke-width="0.941537"/>
<path d="M435.462 196.67C435.462 230.894 405.197 261.397 364.338 261.397C323.48 261.397 293.215 230.894 293.215 196.67C293.215 162.446 323.48 131.943 364.338 131.943C405.197 131.943 435.462 162.446 435.462 196.67Z" stroke="#3B86FF" stroke-width="47.0769"/>
<path d="M428.346 194.112C428.346 225.613 400.948 251.205 367.081 251.205C333.214 251.205 305.816 225.613 305.816 194.112C305.816 162.61 333.214 137.018 367.081 137.018C400.948 137.018 428.346 162.61 428.346 194.112Z" stroke="url(#paint4_linear_215_136)" stroke-width="0.941537"/>
</g>
<path d="M240.541 162.976H235.024V153.932H240.541V155.058H235.687L236.25 154.57V157.885H240.116V158.973H236.25V162.351L235.687 161.838H240.541V162.976ZM242.743 162.976H241.392L243.531 159.949L241.404 156.859H242.768L244.319 159.136L245.833 156.859H247.171L245.044 159.949L247.133 162.976H245.77L244.244 160.737L242.743 162.976ZM248.152 165.716V156.859H249.215L249.303 157.96C249.503 157.535 249.799 157.218 250.191 157.009C250.591 156.792 251.033 156.684 251.517 156.684C252.101 156.684 252.605 156.822 253.031 157.097C253.456 157.364 253.781 157.739 254.006 158.223C254.24 158.698 254.357 159.248 254.357 159.874C254.357 160.499 254.244 161.058 254.019 161.55C253.802 162.042 253.481 162.43 253.056 162.713C252.639 162.997 252.126 163.139 251.517 163.139C251.025 163.139 250.587 163.039 250.204 162.838C249.82 162.638 249.528 162.351 249.328 161.975V165.716H248.152ZM249.34 159.924C249.34 160.332 249.415 160.704 249.566 161.037C249.724 161.362 249.945 161.617 250.229 161.8C250.52 161.984 250.867 162.075 251.267 162.075C251.667 162.075 252.009 161.984 252.293 161.8C252.576 161.608 252.793 161.35 252.943 161.025C253.101 160.699 253.181 160.332 253.181 159.924C253.181 159.498 253.101 159.123 252.943 158.798C252.793 158.473 252.576 158.218 252.293 158.035C252.009 157.851 251.667 157.76 251.267 157.76C250.867 157.76 250.52 157.851 250.229 158.035C249.945 158.218 249.724 158.473 249.566 158.798C249.415 159.123 249.34 159.498 249.34 159.924ZM256.15 163.126C255.908 163.126 255.695 163.043 255.512 162.876C255.337 162.701 255.249 162.492 255.249 162.251C255.249 162 255.337 161.792 255.512 161.625C255.695 161.45 255.908 161.362 256.15 161.362C256.391 161.362 256.6 161.45 256.775 161.625C256.95 161.792 257.038 162 257.038 162.251C257.038 162.492 256.95 162.701 256.775 162.876C256.6 163.043 256.391 163.126 256.15 163.126ZM234.762 179.17C234.762 177.969 234.955 176.918 235.341 176.018C235.737 175.106 236.295 174.399 237.013 173.895C237.732 173.38 238.579 173.123 239.555 173.123C240.53 173.123 241.372 173.38 242.08 173.895C242.798 174.399 243.35 175.106 243.736 176.018C244.133 176.918 244.331 177.969 244.331 179.17C244.331 180.382 244.138 181.438 243.752 182.338C243.377 183.239 242.83 183.941 242.112 184.445C241.404 184.939 240.552 185.185 239.555 185.185C238.557 185.185 237.7 184.939 236.981 184.445C236.263 183.941 235.711 183.239 235.325 182.338C234.949 181.438 234.762 180.382 234.762 179.17ZM236.322 179.17C236.322 180.124 236.45 180.95 236.708 181.647C236.965 182.333 237.33 182.858 237.801 183.223C238.284 183.588 238.868 183.77 239.555 183.77C240.23 183.77 240.809 183.588 241.292 183.223C241.774 182.858 242.139 182.333 242.385 181.647C242.643 180.95 242.771 180.124 242.771 179.17C242.771 178.205 242.643 177.379 242.385 176.693C242.139 175.996 241.774 175.465 241.292 175.101C240.809 174.726 240.23 174.538 239.555 174.538C238.868 174.538 238.284 174.726 237.801 175.101C237.33 175.465 236.965 175.996 236.708 176.693C236.45 177.379 236.322 178.205 236.322 179.17ZM253.282 174.618L249.02 178.687L247.99 177.915L252.108 173.959L252.027 174.747H246.06V173.348H253.282V174.618ZM249.148 178.961H247.99V177.915C248.173 177.798 248.398 177.722 248.666 177.69C248.945 177.647 249.213 177.626 249.47 177.626C250.038 177.626 250.569 177.712 251.062 177.883C251.555 178.044 251.99 178.285 252.365 178.607C252.751 178.929 253.046 179.32 253.25 179.781C253.464 180.231 253.571 180.746 253.571 181.325C253.571 182.108 253.389 182.789 253.024 183.368C252.671 183.947 252.177 184.392 251.545 184.703C250.923 185.014 250.22 185.169 249.438 185.169C248.676 185.169 248.001 185.019 247.411 184.719C246.822 184.419 246.355 183.984 246.012 183.416C245.68 182.837 245.513 182.151 245.513 181.357H247.074C247.074 182.108 247.288 182.698 247.717 183.126C248.156 183.545 248.741 183.754 249.47 183.754C250.22 183.754 250.821 183.529 251.271 183.078C251.732 182.628 251.963 182.033 251.963 181.293C251.963 180.596 251.727 180.033 251.255 179.604C250.783 179.175 250.081 178.961 249.148 178.961ZM255.668 184.976H254.172L258.708 173.364H260.219L255.668 184.976ZM268.807 184.96L260.959 184.976V183.77L264.706 180.537C265.178 180.14 265.569 179.781 265.88 179.459C266.191 179.138 266.438 178.843 266.62 178.575C266.802 178.296 266.931 178.023 267.006 177.755C267.081 177.487 267.119 177.197 267.119 176.886C267.119 176.157 266.92 175.589 266.524 175.181C266.138 174.763 265.591 174.554 264.883 174.554C264.165 174.554 263.586 174.801 263.146 175.294C262.717 175.776 262.497 176.43 262.487 177.256H260.911C260.932 176.43 261.109 175.707 261.441 175.085C261.774 174.463 262.235 173.986 262.824 173.653C263.425 173.31 264.117 173.139 264.899 173.139C265.682 173.139 266.357 173.289 266.926 173.589C267.494 173.889 267.934 174.313 268.245 174.86C268.566 175.396 268.727 176.039 268.727 176.79C268.727 177.197 268.673 177.588 268.566 177.964C268.459 178.328 268.287 178.693 268.052 179.057C267.826 179.411 267.532 179.781 267.167 180.167C266.802 180.542 266.363 180.955 265.848 181.406L262.808 184.043L262.278 183.496H268.807V184.96ZM277.23 173.348V184.976H275.718V173.348H277.23ZM269.703 181.229L275.187 173.348H276.876L271.343 181.325L269.703 181.229ZM278.613 182.628H269.703V181.229H278.613V182.628Z" fill="white"/>
<path d="M267.938 75.1621H264.648V66.0178H267.851C268.752 66.0178 269.544 66.2138 270.228 66.6058C270.911 66.9894 271.445 67.5273 271.829 68.2195C272.221 68.9033 272.417 69.6997 272.417 70.6087C272.417 71.5011 272.225 72.2933 271.841 72.9855C271.466 73.6693 270.941 74.2031 270.265 74.5867C269.598 74.9703 268.822 75.1621 267.938 75.1621ZM266.25 66.7559V74.4366L265.487 73.686H267.788C268.397 73.686 268.922 73.5609 269.364 73.3107C269.806 73.0606 270.144 72.7061 270.378 72.2475C270.611 71.7888 270.728 71.2425 270.728 70.6087C270.728 69.9583 270.607 69.4037 270.365 68.945C270.123 68.478 269.777 68.1194 269.327 67.8692C268.877 67.619 268.335 67.4939 267.701 67.4939H265.487L266.25 66.7559ZM276.448 75.3247C275.839 75.3247 275.297 75.1871 274.821 74.9119C274.354 74.6284 273.987 74.2448 273.721 73.7611C273.454 73.269 273.32 72.7061 273.32 72.0723C273.32 71.4302 273.45 70.8631 273.708 70.3711C273.967 69.879 274.329 69.4954 274.796 69.2202C275.263 68.9367 275.797 68.7949 276.398 68.7949C277.023 68.7949 277.561 68.9283 278.011 69.1952C278.462 69.4537 278.808 69.8165 279.05 70.2835C279.3 70.7505 279.425 71.3093 279.425 71.9597V72.4226L274.121 72.4351L274.146 71.4594H277.911C277.911 71.0341 277.774 70.6921 277.498 70.4336C277.232 70.1751 276.869 70.0458 276.41 70.0458C276.052 70.0458 275.747 70.1209 275.497 70.271C275.255 70.4211 275.072 70.6463 274.947 70.9465C274.821 71.2467 274.759 71.6136 274.759 72.0473C274.759 72.7145 274.901 73.219 275.184 73.5609C275.476 73.9028 275.906 74.0738 276.473 74.0738C276.89 74.0738 277.232 73.9946 277.498 73.8361C277.774 73.6777 277.953 73.4525 278.036 73.1606H279.45C279.316 73.8361 278.983 74.3657 278.449 74.7493C277.924 75.1329 277.257 75.3247 276.448 75.3247ZM282.06 75.1621H280.646V65.8552H282.172V69.8832C282.373 69.5329 282.664 69.2661 283.048 69.0826C283.432 68.8908 283.861 68.7949 284.336 68.7949C284.929 68.7949 285.433 68.9367 285.85 69.2202C286.275 69.4954 286.601 69.8832 286.826 70.3836C287.059 70.8839 287.176 71.4635 287.176 72.1224C287.176 72.7478 287.055 73.3024 286.813 73.7861C286.571 74.2698 286.23 74.6492 285.788 74.9244C285.346 75.1913 284.829 75.3247 284.236 75.3247C283.778 75.3247 283.361 75.2247 282.985 75.0245C282.619 74.8244 282.343 74.5492 282.16 74.1989L282.06 75.1621ZM282.185 72.0473C282.185 72.4142 282.256 72.7437 282.398 73.0355C282.539 73.3191 282.739 73.5401 282.998 73.6985C283.265 73.8486 283.573 73.9237 283.924 73.9237C284.282 73.9237 284.591 73.8445 284.849 73.686C285.108 73.5276 285.304 73.3066 285.437 73.023C285.571 72.7395 285.637 72.4142 285.637 72.0473C285.637 71.6804 285.571 71.3551 285.437 71.0716C285.304 70.788 285.108 70.567 284.849 70.4086C284.591 70.2418 284.282 70.1584 283.924 70.1584C283.573 70.1584 283.265 70.2418 282.998 70.4086C282.739 70.567 282.539 70.788 282.398 71.0716C282.256 71.3468 282.185 71.672 282.185 72.0473ZM288.391 75.1621V68.9825H289.917V75.1621H288.391ZM289.142 67.7441C288.883 67.7441 288.662 67.6566 288.479 67.4814C288.304 67.298 288.216 67.077 288.216 66.8184C288.216 66.5599 288.304 66.3431 288.479 66.168C288.662 65.9928 288.883 65.9053 289.142 65.9053C289.4 65.9053 289.617 65.9928 289.792 66.168C289.976 66.3431 290.067 66.5599 290.067 66.8184C290.067 67.077 289.976 67.298 289.792 67.4814C289.617 67.6566 289.4 67.7441 289.142 67.7441ZM290.881 68.9825H294.784V70.2585H290.881V68.9825ZM293.596 75.1621H292.07V67.0561H293.596V75.1621ZM303.207 75.3122C302.315 75.3122 301.54 75.1204 300.881 74.7368C300.23 74.3448 299.722 73.7986 299.355 73.0981C298.996 72.3892 298.817 71.5553 298.817 70.5962C298.817 69.6455 299 68.8157 299.367 68.1069C299.742 67.398 300.268 66.8476 300.943 66.4557C301.619 66.0637 302.399 65.8677 303.283 65.8677C304.008 65.8677 304.659 66.0012 305.234 66.268C305.809 66.5349 306.285 66.9102 306.66 67.3939C307.035 67.8692 307.273 68.4363 307.373 69.0951H305.684C305.526 68.5614 305.23 68.1486 304.796 67.8567C304.371 67.5565 303.85 67.4064 303.233 67.4064C302.682 67.4064 302.198 67.5356 301.781 67.7942C301.373 68.0527 301.056 68.4196 300.831 68.895C300.606 69.3703 300.493 69.9374 300.493 70.5962C300.493 71.23 300.606 71.7888 300.831 72.2725C301.056 72.7478 301.373 73.1189 301.781 73.3858C302.198 73.6443 302.682 73.7736 303.233 73.7736C303.858 73.7736 304.392 73.6235 304.834 73.3232C305.284 73.023 305.584 72.6186 305.734 72.1098H307.398C307.281 72.7437 307.027 73.3024 306.635 73.7861C306.251 74.2698 305.764 74.6451 305.171 74.9119C304.588 75.1788 303.933 75.3122 303.207 75.3122ZM310.326 75.3247C309.675 75.3247 309.158 75.1496 308.774 74.7993C308.399 74.4407 308.211 73.9737 308.211 73.3983C308.211 72.8312 308.407 72.3809 308.799 72.0473C309.2 71.7054 309.767 71.5052 310.501 71.4469L312.352 71.2967V71.1591C312.352 70.8756 312.298 70.6504 312.189 70.4836C312.089 70.3085 311.943 70.1834 311.752 70.1084C311.56 70.025 311.335 69.9833 311.076 69.9833C310.626 69.9833 310.28 70.075 310.038 70.2585C309.796 70.4336 309.675 70.6838 309.675 71.009H308.374C308.374 70.5587 308.487 70.1709 308.712 69.8457C308.945 69.5121 309.271 69.2536 309.688 69.0701C310.113 68.8866 310.601 68.7949 311.151 68.7949C311.71 68.7949 312.189 68.895 312.59 69.0951C312.99 69.2869 313.299 69.5788 313.515 69.9708C313.732 70.3544 313.841 70.8339 313.841 71.4093V75.1621H312.502L312.39 74.2489C312.256 74.5658 311.998 74.8244 311.614 75.0245C311.239 75.2247 310.809 75.3247 310.326 75.3247ZM310.813 74.1739C311.289 74.1739 311.664 74.0404 311.939 73.7736C312.223 73.5067 312.365 73.1356 312.365 72.6603V72.335L311.076 72.4351C310.601 72.4768 310.263 72.5769 310.063 72.7353C309.863 72.8854 309.763 73.0856 309.763 73.3358C309.763 73.611 309.854 73.8194 310.038 73.9612C310.221 74.103 310.48 74.1739 310.813 74.1739ZM319.218 68.9575V70.3711H318.655C318.096 70.3711 317.658 70.5212 317.341 70.8214C317.024 71.1133 316.866 71.5594 316.866 72.1599V75.1621H315.34V68.995H316.778L316.904 70.271H316.753C316.837 69.8624 317.033 69.5288 317.341 69.2702C317.65 69.0117 318.05 68.8825 318.542 68.8825C318.651 68.8825 318.759 68.8866 318.868 68.895C318.976 68.9033 319.093 68.9242 319.218 68.9575ZM322.582 75.3247C321.982 75.3247 321.465 75.1913 321.031 74.9244C320.606 74.6492 320.272 74.2698 320.031 73.7861C319.797 73.3024 319.68 72.7395 319.68 72.0973C319.68 71.4552 319.797 70.8881 320.031 70.3961C320.272 69.8957 320.619 69.5038 321.069 69.2202C321.519 68.9367 322.053 68.7949 322.67 68.7949C323.104 68.7949 323.5 68.8825 323.858 69.0576C324.217 69.2244 324.492 69.4621 324.684 69.7706V65.8552H326.198V75.1621H324.797L324.697 74.1989C324.513 74.5492 324.23 74.8244 323.846 75.0245C323.471 75.2247 323.049 75.3247 322.582 75.3247ZM322.92 73.9237C323.279 73.9237 323.587 73.8486 323.846 73.6985C324.104 73.5401 324.305 73.3191 324.446 73.0355C324.596 72.7437 324.672 72.4142 324.672 72.0473C324.672 71.672 324.596 71.3468 324.446 71.0716C324.305 70.788 324.104 70.567 323.846 70.4086C323.587 70.2418 323.279 70.1584 322.92 70.1584C322.57 70.1584 322.266 70.2418 322.007 70.4086C321.749 70.567 321.548 70.788 321.407 71.0716C321.273 71.3551 321.206 71.6804 321.206 72.0473C321.206 72.4142 321.273 72.7395 321.407 73.023C321.548 73.3066 321.749 73.5276 322.007 73.686C322.266 73.8445 322.57 73.9237 322.92 73.9237Z" fill="white"/>
<path d="M38.9631 119.87H37.6603L40.4428 115.978L37.6764 112.086H38.9792L41.1826 115.206L43.3699 112.086H44.6566L41.8903 115.994L44.6405 119.87H43.3217L41.1343 116.75L38.9631 119.87ZM46.2823 119.87H44.9795L47.7619 115.978L44.9956 112.086H46.2984L48.5018 115.206L50.6891 112.086H51.9758L49.2094 115.994L51.9597 119.87H50.6409L48.4535 116.75L46.2823 119.87ZM53.6014 119.87H52.2987L55.0811 115.978L52.3148 112.086H53.6175L55.8209 115.206L58.0083 112.086H59.2949L56.5286 115.994L59.2789 119.87H57.96L55.7727 116.75L53.6014 119.87ZM60.9206 119.87H59.6179L62.4003 115.978L59.6339 112.086H60.9367L63.1401 115.206L65.3274 112.086H66.6141L63.8478 115.994L66.598 119.87H65.2792L63.0919 116.75L60.9206 119.87ZM117.307 119.87H116.004L118.786 115.978L116.02 112.086H117.323L119.526 115.206L121.713 112.086H123L120.234 115.994L122.984 119.87H121.665L119.478 116.75L117.307 119.87ZM124.626 119.87H123.323L126.105 115.978L123.339 112.086H124.642L126.845 115.206L129.033 112.086H130.319L127.553 115.994L130.303 119.87H128.984L126.797 116.75L124.626 119.87ZM131.945 119.87H130.642L133.425 115.978L130.658 112.086H131.961L134.164 115.206L136.352 112.086H137.638L134.872 115.994L137.622 119.87H136.303L134.116 116.75L131.945 119.87ZM139.264 119.87H137.961L140.744 115.978L137.977 112.086H139.28L141.484 115.206L143.671 112.086H144.958L142.191 115.994L144.941 119.87H143.623L141.435 116.75L139.264 119.87ZM146.583 119.87H145.28L148.063 115.978L145.297 112.086H146.599L148.803 115.206L150.99 112.086H152.277L149.51 115.994L152.261 119.87H150.942L148.754 116.75L146.583 119.87ZM207.43 119.87H206.127L208.909 115.978L206.143 112.086H207.446L209.649 115.206L211.837 112.086H213.123L210.357 115.994L213.107 119.87H211.788L209.601 116.75L207.43 119.87ZM214.749 119.87H213.446L216.229 115.978L213.462 112.086H214.765L216.968 115.206L219.156 112.086H220.442L217.676 115.994L220.426 119.87H219.107L216.92 116.75L214.749 119.87ZM222.068 119.87H220.765L223.548 115.978L220.781 112.086H222.084L224.288 115.206L226.475 112.086H227.762L224.995 115.994L227.746 119.87H226.427L224.239 116.75L222.068 119.87ZM229.387 119.87H228.085L230.867 115.978L228.101 112.086H229.403L231.607 115.206L233.794 112.086H235.081L232.314 115.994L235.065 119.87H233.746L231.559 116.75L229.387 119.87ZM273.115 112.231L275.994 108.355H277.345L274.016 112.778L273.807 112.681C274.182 112.424 274.536 112.241 274.868 112.134C275.201 112.027 275.544 111.973 275.898 111.973C276.702 111.973 277.404 112.15 278.004 112.504C278.605 112.858 279.066 113.341 279.388 113.952C279.72 114.552 279.886 115.228 279.886 115.978C279.886 116.761 279.704 117.463 279.339 118.085C278.986 118.696 278.498 119.179 277.876 119.533C277.265 119.886 276.573 120.063 275.801 120.063C275.029 120.063 274.327 119.886 273.694 119.533C273.072 119.168 272.579 118.68 272.214 118.069C271.85 117.447 271.668 116.75 271.668 115.978C271.668 115.528 271.71 115.115 271.796 114.74C271.893 114.354 272.043 113.962 272.247 113.566C272.461 113.169 272.751 112.724 273.115 112.231ZM272.842 115.994C272.842 116.573 272.965 117.093 273.212 117.554C273.458 118.005 273.807 118.364 274.257 118.632C274.707 118.889 275.222 119.018 275.801 119.018C276.369 119.018 276.873 118.889 277.313 118.632C277.752 118.364 278.096 118.005 278.342 117.554C278.6 117.093 278.728 116.573 278.728 115.994C278.728 115.405 278.6 114.885 278.342 114.434C278.096 113.984 277.752 113.63 277.313 113.373C276.873 113.115 276.369 112.987 275.801 112.987C275.222 112.987 274.707 113.115 274.257 113.373C273.807 113.63 273.458 113.984 273.212 114.434C272.965 114.885 272.842 115.405 272.842 115.994ZM288.435 108.355V119.87H287.309V108.355H288.435ZM281.262 116.396L286.891 108.355H288.146L282.5 116.429L281.262 116.396ZM289.786 117.426H281.262V116.396H289.786V117.426ZM295.115 120.063C294.343 120.063 293.673 119.913 293.105 119.613C292.536 119.302 292.097 118.868 291.786 118.31C291.475 117.753 291.319 117.099 291.319 116.348H292.477C292.477 117.174 292.713 117.822 293.185 118.294C293.667 118.766 294.316 119.002 295.131 119.002C295.71 119.002 296.214 118.884 296.643 118.648C297.072 118.401 297.404 118.064 297.64 117.635C297.876 117.206 297.994 116.707 297.994 116.139C297.994 115.603 297.881 115.12 297.656 114.692C297.431 114.252 297.104 113.903 296.675 113.646C296.257 113.389 295.742 113.26 295.131 113.26C294.606 113.26 294.107 113.373 293.635 113.598C293.174 113.812 292.788 114.091 292.477 114.434L291.561 114.145L292.944 108.355H298.509V109.416H293.201L293.941 108.757L292.767 113.598L292.381 113.55C292.713 113.121 293.137 112.794 293.651 112.569C294.166 112.343 294.713 112.231 295.292 112.231C296.085 112.231 296.772 112.408 297.351 112.762C297.93 113.105 298.374 113.571 298.685 114.161C299.007 114.74 299.168 115.388 299.168 116.107C299.168 116.879 298.996 117.565 298.653 118.166C298.31 118.755 297.833 119.222 297.222 119.565C296.621 119.897 295.919 120.063 295.115 120.063ZM308.029 109.288L303.751 113.534L303.011 112.89L307.145 108.805L307.289 109.384H301.049V108.355H308.029V109.288ZM303.928 113.694H303.011V112.89C303.193 112.826 303.392 112.778 303.606 112.745C303.821 112.713 304.041 112.697 304.266 112.697C304.855 112.697 305.392 112.783 305.874 112.955C306.357 113.115 306.78 113.357 307.145 113.678C307.509 113.989 307.788 114.364 307.981 114.804C308.185 115.244 308.287 115.737 308.287 116.284C308.287 117.045 308.115 117.71 307.772 118.278C307.429 118.846 306.952 119.286 306.34 119.597C305.74 119.908 305.054 120.063 304.282 120.063C303.521 120.063 302.856 119.919 302.287 119.629C301.719 119.329 301.274 118.9 300.953 118.342C300.642 117.785 300.486 117.125 300.486 116.364H301.628C301.628 117.19 301.869 117.839 302.352 118.31C302.834 118.782 303.478 119.018 304.282 119.018C305.15 119.018 305.837 118.766 306.34 118.262C306.855 117.758 307.112 117.088 307.112 116.252C307.112 115.458 306.839 114.836 306.292 114.386C305.745 113.925 304.957 113.694 303.928 113.694Z" fill="white"/>
<path d="M37.3217 146.557V145.866H39.2999V146.557C39.2999 147.008 39.4339 147.388 39.702 147.699C39.9701 148.01 40.3882 148.166 40.9565 148.166C41.5355 148.166 41.9537 148.015 42.211 147.715C42.4683 147.404 42.597 146.997 42.597 146.493V138.113H44.6557V146.605C44.6557 147.281 44.5002 147.881 44.1893 148.407C43.889 148.932 43.4655 149.345 42.9187 149.645C42.3718 149.935 41.7231 150.079 40.9726 150.079C40.1791 150.079 39.509 149.929 38.9622 149.629C38.4153 149.318 38.0025 148.9 37.7238 148.375C37.4557 147.839 37.3217 147.233 37.3217 146.557ZM57.8726 143.984C57.8726 145.174 57.6314 146.23 57.1489 147.152C56.6664 148.064 55.9963 148.777 55.1385 149.291C54.2807 149.806 53.2889 150.063 52.1631 150.063C51.048 150.063 50.0615 149.806 49.2037 149.291C48.346 148.777 47.6758 148.064 47.1933 147.152C46.7215 146.241 46.4856 145.19 46.4856 144C46.4856 142.799 46.7269 141.743 47.2094 140.832C47.6919 139.909 48.3567 139.191 49.2037 138.676C50.0615 138.162 51.0533 137.904 52.1791 137.904C53.305 137.904 54.2914 138.162 55.1385 138.676C55.9963 139.191 56.6664 139.904 57.1489 140.815C57.6314 141.727 57.8726 142.783 57.8726 143.984ZM55.7175 143.984C55.7175 143.148 55.5727 142.424 55.2832 141.813C54.9937 141.201 54.5863 140.73 54.0609 140.397C53.5355 140.054 52.9083 139.883 52.1791 139.883C51.4608 139.883 50.8335 140.054 50.2974 140.397C49.772 140.73 49.3646 141.201 49.0751 141.813C48.7856 142.424 48.6408 143.148 48.6408 143.984C48.6408 144.82 48.7856 145.549 49.0751 146.171C49.3646 146.782 49.772 147.254 50.2974 147.587C50.8335 147.919 51.4608 148.085 52.1791 148.085C52.9083 148.085 53.5355 147.919 54.0609 147.587C54.5863 147.243 54.9937 146.766 55.2832 146.155C55.5727 145.533 55.7175 144.809 55.7175 143.984ZM61.8635 149.87H59.8048V138.113H61.8635V142.987H67.0745V138.113H69.1331V149.87H67.0745V144.885H61.8635V149.87ZM73.7524 149.87H71.7259V138.113H73.7685L79.8802 147.361H79.2851V138.113H81.3116V149.87H79.2851L73.1573 140.639H73.7524V149.87ZM92.479 149.87H88.249V138.113H92.3664C93.5244 138.113 94.543 138.365 95.4222 138.869C96.3014 139.363 96.9877 140.054 97.4809 140.944C97.9848 141.823 98.2368 142.847 98.2368 144.016C98.2368 145.163 97.9902 146.182 97.497 147.072C97.0145 147.951 96.339 148.637 95.4705 149.131C94.6127 149.624 93.6155 149.87 92.479 149.87ZM90.3077 139.062V148.938L89.3266 147.973H92.286C93.0687 147.973 93.7442 147.812 94.3125 147.49C94.8807 147.168 95.315 146.713 95.6152 146.123C95.9154 145.533 96.0655 144.831 96.0655 144.016C96.0655 143.18 95.9101 142.467 95.5991 141.877C95.2882 141.276 94.8432 140.815 94.2642 140.494C93.6852 140.172 92.9883 140.011 92.1734 140.011H89.3266L90.3077 139.062ZM110.866 143.984C110.866 145.174 110.625 146.23 110.142 147.152C109.66 148.064 108.99 148.777 108.132 149.291C107.274 149.806 106.282 150.063 105.156 150.063C104.041 150.063 103.055 149.806 102.197 149.291C101.339 148.777 100.669 148.064 100.187 147.152C99.7149 146.241 99.479 145.19 99.479 144C99.479 142.799 99.7202 141.743 100.203 140.832C100.685 139.909 101.35 139.191 102.197 138.676C103.055 138.162 104.047 137.904 105.172 137.904C106.298 137.904 107.285 138.162 108.132 138.676C108.99 139.191 109.66 139.904 110.142 140.815C110.625 141.727 110.866 142.783 110.866 143.984ZM108.711 143.984C108.711 143.148 108.566 142.424 108.277 141.813C107.987 141.201 107.58 140.73 107.054 140.397C106.529 140.054 105.902 139.883 105.172 139.883C104.454 139.883 103.827 140.054 103.291 140.397C102.765 140.73 102.358 141.201 102.068 141.813C101.779 142.424 101.634 143.148 101.634 143.984C101.634 144.82 101.779 145.549 102.068 146.171C102.358 146.782 102.765 147.254 103.291 147.587C103.827 147.919 104.454 148.085 105.172 148.085C105.902 148.085 106.529 147.919 107.054 147.587C107.58 147.243 107.987 146.766 108.277 146.155C108.566 145.533 108.711 144.809 108.711 143.984ZM120.1 149.87H112.798V138.113H120.1V140.011H114.133L114.857 139.352V143.035H119.553V144.852H114.857V148.632L114.133 147.973H120.1V149.87Z" fill="white"/>
<circle cx="309.449" cy="178.569" r="8.93519" fill="#D22E41"/>
<circle cx="320.172" cy="178.569" r="8.93519" fill="#DA9634"/>
<path d="M315.718 42.8475C315.464 42.8475 315.225 42.7571 315.05 42.5912L310.884 38.5201C310.487 38.1733 310.471 37.5853 310.852 37.2083C311.218 36.8314 311.838 36.8163 312.236 37.1782L315.289 39.2438C315.464 39.3947 315.734 39.3645 315.877 39.1836L323.113 30.7097C323.431 30.3025 324.051 30.2121 324.48 30.5288C324.91 30.8303 325.005 31.4183 324.671 31.8255L316.497 42.4706C316.322 42.6817 316.068 42.8174 315.798 42.8325C315.766 42.8476 315.75 42.8476 315.718 42.8476L315.718 42.8475Z" fill="white"/>
<defs>
<filter id="filter0_f_215_136" x="7" y="8.87036" width="367" height="217" filterUnits="userSpaceOnUse" color-interpolation-filters="sRGB">
<feFlood flood-opacity="0" result="BackgroundImageFix"/>
<feBlend mode="normal" in="SourceGraphic" in2="BackgroundImageFix" result="shape"/>
<feGaussianBlur stdDeviation="1.5" result="effect1_foregroundBlur_215_136"/>
</filter>
<linearGradient id="paint0_linear_215_136" x1="177" y1="0.870361" x2="177" y2="207.87" gradientUnits="userSpaceOnUse">
<stop offset="0.114583" stop-color="#8DB7FB"/>
<stop offset="0.640625" stop-color="#3B86FF"/>
</linearGradient>
<linearGradient id="paint1_linear_215_136" x1="177" y1="0.870361" x2="177" y2="207.87" gradientUnits="userSpaceOnUse">
<stop stop-color="#6739B7"/>
<stop offset="1" stop-color="#9A7EC9"/>
</linearGradient>
<linearGradient id="paint2_linear_215_136" x1="-33.8862" y1="-35.0475" x2="-33.8862" y2="50.2841" gradientUnits="userSpaceOnUse">
<stop offset="0.432292" stop-color="white" stop-opacity="0.484785"/>
<stop offset="1" stop-color="white" stop-opacity="0.01"/>
</linearGradient>
<linearGradient id="paint3_linear_215_136" x1="115.345" y1="49.3916" x2="115.345" y2="164.521" gradientUnits="userSpaceOnUse">
<stop offset="0.432292" stop-color="white" stop-opacity="0.484785"/>
<stop offset="1" stop-color="white" stop-opacity="0.01"/>
</linearGradient>
<linearGradient id="paint4_linear_215_136" x1="305.345" y1="136.547" x2="305.345" y2="251.676" gradientUnits="userSpaceOnUse">
<stop offset="0.432292" stop-color="white" stop-opacity="0.484785"/>
<stop offset="1" stop-color="white" stop-opacity="0.01"/>
</linearGradient>
</defs>
</svg>
