<svg width="23" height="19" viewBox="0 0 23 19" fill="none" xmlns="http://www.w3.org/2000/svg">
<path d="M8.02832 9.25C10.4893 9.25 12.5283 7.24609 12.5283 4.75C12.5283 2.28906 10.4893 0.25 8.02832 0.25C5.53223 0.25 3.52832 2.28906 3.52832 4.75C3.52832 7.24609 5.53223 9.25 8.02832 9.25ZM9.78613 10.9375H6.23535C2.86035 10.9375 0.15332 13.6797 0.15332 17.0547C0.15332 17.7227 0.680664 18.25 1.34863 18.25H14.6729C15.3408 18.25 15.9033 17.7227 15.9033 17.0547C15.9033 13.6797 13.1611 10.9375 9.78613 10.9375ZM16.9932 11.5H14.3916C16.0088 12.8359 17.0283 14.8398 17.0283 17.0547C17.0283 17.5117 16.8877 17.8984 16.6768 18.25H21.5283C22.126 18.25 22.6533 17.7578 22.6533 17.125C22.6533 14.0312 20.1221 11.5 16.9932 11.5ZM15.3408 9.25C17.4854 9.25 19.2783 7.49219 19.2783 5.3125C19.2783 3.16797 17.4854 1.375 15.3408 1.375C14.4268 1.375 13.6182 1.69141 12.9854 2.18359C13.3721 2.95703 13.6533 3.83594 13.6533 4.75C13.6533 6.01562 13.2314 7.17578 12.5283 8.08984C13.2314 8.82812 14.2158 9.25 15.3408 9.25Z" fill="#969696" fill-opacity="0.4"/>
</svg>
