<svg width="22" height="23" viewBox="0 0 22 23" fill="none" xmlns="http://www.w3.org/2000/svg">
<path d="M19.1329 4.70055L16.9121 6.92138C16.7496 7.08388 16.5437 7.15972 16.3379 7.15972C16.1321 7.15972 15.9262 7.08388 15.7637 6.92138C15.4496 6.60722 15.4496 6.08722 15.7637 5.77305L17.9846 3.55222C16.0779 1.92722 13.6187 0.93055 10.9212 0.93055C4.94122 0.93055 0.0878906 5.78388 0.0878906 11.7639C0.0878906 17.7439 4.94122 22.5972 10.9212 22.5972C16.9012 22.5972 21.7546 17.7439 21.7546 11.7639C21.7546 9.06638 20.7579 6.60722 19.1329 4.70055ZM12.8171 11.5689C13.5104 11.818 14.4421 12.3164 14.4421 13.9089C14.4421 15.263 13.3696 16.3789 12.0587 16.3789H11.7337V16.6497C11.7337 17.0939 11.3654 17.4622 10.9212 17.4622C10.4771 17.4622 10.1087 17.0939 10.1087 16.6497V16.3789H10.0221C8.58122 16.3789 7.40039 15.1655 7.40039 13.6705C7.40039 13.2155 7.76872 12.8472 8.21289 12.8472C8.65706 12.8472 9.02539 13.2155 9.02539 13.6597C9.02539 14.2555 9.46956 14.743 10.0221 14.743H10.1087V12.338L9.02539 11.9589C8.33206 11.7097 7.40039 11.2114 7.40039 9.61888C7.40039 8.26472 8.47289 7.14888 9.78372 7.14888H10.1087V6.88888C10.1087 6.44472 10.4771 6.07638 10.9212 6.07638C11.3654 6.07638 11.7337 6.44472 11.7337 6.88888V7.15972H11.8204C13.2612 7.15972 14.4421 8.37305 14.4421 9.86805C14.4421 10.3122 14.0737 10.6805 13.6296 10.6805C13.1854 10.6805 12.8171 10.3122 12.8171 9.86805C12.8171 9.27222 12.3729 8.78472 11.8204 8.78472H11.7337V11.1897L12.8171 11.5689Z" fill="#4F4BF5"/>
</svg>
