<svg width="21" height="14" viewBox="0 0 21 14" fill="none" xmlns="http://www.w3.org/2000/svg">
<path d="M18.1533 0.5C19.3838 0.5 20.4033 1.51953 20.4033 2.75V11.75C20.4033 13.0156 19.3838 14 18.1533 14H2.40332C1.1377 14 0.15332 13.0156 0.15332 11.75V2.75C0.15332 1.51953 1.1377 0.5 2.40332 0.5H18.1533ZM9.71582 5C9.39941 5 9.15332 5.28125 9.15332 5.5625C9.15332 5.87891 9.39941 6.125 9.71582 6.125H17.5908C17.8721 6.125 18.1533 5.87891 18.1533 5.5625C18.1533 5.28125 17.8721 5 17.5908 5H9.71582ZM9.71582 9.5H17.5908C17.8721 9.5 18.1533 9.25391 18.1533 8.9375C18.1533 8.65625 17.8721 8.375 17.5908 8.375H9.71582C9.39941 8.375 9.15332 8.65625 9.15332 8.9375C9.15332 9.25391 9.39941 9.5 9.71582 9.5ZM5.91895 3.875C5.91895 3.48828 5.60254 3.17188 5.18066 3.17188C4.79395 3.17188 4.47754 3.48828 4.47754 3.875V4.08594C4.30176 4.15625 4.09082 4.19141 3.9502 4.29688C3.42285 4.50781 2.96582 4.96484 2.8252 5.59766C2.79004 5.94922 2.8252 6.30078 2.96582 6.61719C3.10645 6.93359 3.35254 7.14453 3.56348 7.32031C3.98535 7.60156 4.5127 7.74219 4.93457 7.88281H5.00488C5.49707 8.05859 5.81348 8.16406 6.02441 8.30469C6.12988 8.375 6.16504 8.41016 6.16504 8.44531C6.16504 8.48047 6.2002 8.55078 6.16504 8.69141C6.16504 8.79688 6.09473 8.90234 5.88379 9.00781C5.67285 9.07812 5.32129 9.11328 4.86426 9.04297C4.65332 9.00781 4.30176 8.90234 3.9502 8.79688C3.87988 8.76172 3.80957 8.72656 3.73926 8.69141C3.35254 8.58594 2.96582 8.79688 2.86035 9.14844C2.71973 9.53516 2.93066 9.92188 3.28223 10.0273C3.31738 10.0625 3.3877 10.0625 3.45801 10.0977C3.7041 10.2031 4.16113 10.3438 4.47754 10.4141V10.625C4.47754 11.0469 4.79395 11.3633 5.18066 11.3633C5.60254 11.3633 5.91895 11.0469 5.91895 10.625V10.4492C6.09473 10.4141 6.27051 10.3438 6.44629 10.2734C7.00879 10.0625 7.43066 9.60547 7.57129 8.9375C7.60645 8.55078 7.60645 8.19922 7.46582 7.88281C7.3252 7.56641 7.0791 7.35547 6.86816 7.17969C6.44629 6.86328 5.84863 6.6875 5.42676 6.54688H5.3916C4.89941 6.40625 4.58301 6.30078 4.37207 6.16016C4.2666 6.08984 4.23145 6.05469 4.23145 6.01953C4.23145 6.01953 4.19629 5.98438 4.23145 5.84375C4.23145 5.77344 4.30176 5.66797 4.5127 5.5625C4.72363 5.45703 5.0752 5.42188 5.53223 5.45703C5.67285 5.49219 6.16504 5.59766 6.27051 5.63281C6.65723 5.73828 7.04395 5.49219 7.14941 5.14062C7.25488 4.75391 7.00879 4.36719 6.65723 4.26172C6.48145 4.22656 6.12988 4.15625 5.91895 4.12109V3.875Z" fill="#959595"/>
</svg>
