<svg width="22" height="27" viewBox="0 0 22 27" fill="none" xmlns="http://www.w3.org/2000/svg">
<path d="M10.2783 6.88672L18.1533 13.7773V20.8438C18.1533 21.6172 17.5205 22.25 16.7471 22.25H13.9346C13.126 22.25 12.5283 21.6523 12.5283 20.8438V17.75C12.5283 17.1172 12.001 16.625 11.4033 16.625H9.15332C8.52051 16.625 8.02832 17.1172 8.02832 17.75V20.8438C8.02832 21.6523 7.39551 22.25 6.62207 22.25H3.80957C3.00098 22.25 2.40332 21.6523 2.40332 20.8438V13.7773L10.2783 6.88672Z" fill="#0560FD" fill-opacity="0.4"/>
<path d="M14.7783 7.83594V6.5C14.7783 5.90234 15.2705 5.375 15.9033 5.375H17.0283C17.626 5.375 18.1533 5.90234 18.1533 6.5V10.7891L20.0166 12.4062C20.4736 12.8281 20.5088 13.5312 20.1221 14.0234C19.7002 14.4805 18.9971 14.5156 18.5049 14.1289L10.2783 6.88672L2.0166 14.1289C1.52441 14.5156 0.821289 14.4805 0.399414 14.0234C0.0126953 13.5312 0.0478516 12.8281 0.504883 12.4062L9.50488 4.53125C9.92676 4.17969 10.5947 4.17969 11.0166 4.53125L14.7783 7.83594Z" fill="#4F4BF5"/>
</svg>
