<svg width="21" height="15" viewBox="0 0 21 15" fill="none" xmlns="http://www.w3.org/2000/svg">
<path d="M20.2769 4.96094C20.355 4.88281 20.4331 4.86979 20.5112 4.92188C20.6154 4.97396 20.6675 5.05208 20.6675 5.15625V13.125C20.6675 13.6458 20.4852 14.0885 20.1206 14.4531C19.756 14.8177 19.3133 15 18.7925 15H2.54248C2.02165 15 1.57894 14.8177 1.21436 14.4531C0.849772 14.0885 0.66748 13.6458 0.66748 13.125V5.15625C0.66748 5.05208 0.706543 4.98698 0.784668 4.96094C0.888835 4.90885 0.97998 4.90885 1.05811 4.96094C1.91748 5.61198 3.92269 7.08333 7.07373 9.375C7.12581 9.42708 7.29508 9.57031 7.58154 9.80469C7.89404 10.0391 8.14144 10.2214 8.32373 10.3516C8.50602 10.4557 8.7404 10.599 9.02686 10.7812C9.31331 10.9375 9.58675 11.0547 9.84717 11.1328C10.1336 11.2109 10.4071 11.25 10.6675 11.25C10.9279 11.25 11.1883 11.2109 11.4487 11.1328C11.7352 11.0547 12.0216 10.9375 12.3081 10.7812C12.6206 10.599 12.868 10.4427 13.0503 10.3125C13.2326 10.1823 13.467 10.013 13.7534 9.80469C14.0399 9.57031 14.2091 9.42708 14.2612 9.375C17.3341 7.16146 19.3394 5.6901 20.2769 4.96094ZM10.6675 10C10.4591 10 10.1987 9.9349 9.88623 9.80469C9.59977 9.64844 9.3654 9.51823 9.18311 9.41406C9.00081 9.28385 8.72738 9.08854 8.36279 8.82812C8.02425 8.54167 7.84196 8.39844 7.81592 8.39844C4.63883 6.08073 2.37321 4.40104 1.01904 3.35938C0.784668 3.17708 0.66748 2.92969 0.66748 2.61719V1.875C0.66748 1.35417 0.849772 0.911458 1.21436 0.546875C1.57894 0.182292 2.02165 0 2.54248 0H18.7925C19.3133 0 19.756 0.182292 20.1206 0.546875C20.4852 0.911458 20.6675 1.35417 20.6675 1.875V2.61719C20.6675 2.92969 20.5503 3.17708 20.3159 3.35938C19.0399 4.34896 16.7743 6.02865 13.519 8.39844C13.493 8.39844 13.2977 8.54167 12.9331 8.82812C12.5946 9.08854 12.3341 9.28385 12.1519 9.41406C11.9696 9.51823 11.7222 9.64844 11.4097 9.80469C11.1232 9.9349 10.8758 10 10.6675 10Z" fill="#3B86FF"/>
</svg>
